<?xml version="1.0" standalone="no"?>
<!DOCTYPE svg PUBLIC "-//W3C//DTD SVG 1.1//EN" "http://www.w3.org/Graphics/SVG/1.1/DTD/svg11.dtd" >
<svg>
<metadata>
Created by FontForge 20110222 at Sat Oct 22 19:49:41 2011
 By System Administrator
 (C) Copyright 1989, 1990, 2002 The Monotype Corporation Plc. All Rights Reserved. 
</metadata>
<defs>
<font id="RockwellStd-Bold" horiz-adv-x="333" >
  <font-face 
    font-family="Rockwell Std"
    font-weight="700"
    font-stretch="normal"
    units-per-em="1000"
    panose-1="2 6 8 3 3 4 5 2 1 3"
    ascent="679"
    descent="-321"
    x-height="473"
    cap-height="679"
    bbox="-123 -224 1138 928"
    underline-thickness="50"
    underline-position="-50"
    stemh="109"
    stemv="153"
    unicode-range="U+0020-FB02"
  />
<missing-glyph horiz-adv-x="500" 
d="M0 0v700h500v-700h-500zM250 395l170 255h-340zM280 350l170 -255v510zM80 50h340l-170 255zM50 605v-510l170 255z" />
    <glyph glyph-name="f_i" unicode="fi" horiz-adv-x="625" 
d="M257 364v-255h46v-109h-272v109h73v255h-73v109h73v40c0 102 85 178 224 178c89 0 179 -16 210 -121l-149 -16c-11 30 -44 38 -66 38c-37 0 -66 -13 -66 -68v-51h279v-364h73v-109h-271v109h45v255h-126z" />
    <glyph glyph-name="f_l" unicode="fl" horiz-adv-x="625" 
d="M418 679h118v-570h73v-109h-271v109h45v441c-5 30 -36 42 -59 42c-38 0 -67 -13 -67 -68v-51h68v-109h-68v-255h46v-109h-272v109h73v255h-73v109h73v40c0 86 65 178 229 178c35 0 63 -4 85 -12z" />
    <glyph glyph-name=".notdef" horiz-adv-x="500" 
d="M0 0v700h500v-700h-500zM250 395l170 255h-340zM280 350l170 -255v510zM80 50h340l-170 255zM50 605v-510l170 255z" />
    <glyph glyph-name="space" unicode=" " horiz-adv-x="250" 
 />
    <glyph glyph-name="exclam" unicode="!" horiz-adv-x="354" 
d="M101 679h152v-186l-40 -256h-72l-40 256v186zM95 0v164h164v-164h-164z" />
    <glyph glyph-name="quotedbl" unicode="&#x22;" horiz-adv-x="552" 
d="M355 336l-14 179v164h108v-164l-14 -179h-80zM117 336l-14 179v164h108v-164l-14 -179h-80z" />
    <glyph glyph-name="numbersign" unicode="#" horiz-adv-x="668" 
d="M35 514h146l38 183h114l-38 -183h149l37 183h115l-38 -183h74v-109h-96l-28 -130h124v-109h-146l-39 -179h-114l39 179h-152l-38 -179h-114l38 179h-71v109h95l27 130h-122v109zM271 405l-27 -130h151l27 130h-151z" />
    <glyph glyph-name="dollar" unicode="$" horiz-adv-x="563" 
d="M301 -96h-69v85c-115 18 -182 75 -186 201h120c-4 -38 19 -95 66 -101v207c-127 60 -175 114 -175 198c0 91 71 160 175 169v43h69v-43c120 -10 186 -82 186 -180h-120c-7 51 -27 76 -66 81v-162c126 -50 215 -101 215 -226c0 -108 -87 -184 -215 -187v-85zM301 85
c59 0 96 36 96 80c0 42 -33 77 -96 101v-181zM232 435v129c-37 -7 -55 -25 -55 -57c0 -29 13 -46 55 -72z" />
    <glyph glyph-name="percent" unicode="%" horiz-adv-x="927" 
d="M883 160c0 -113 -57 -177 -159 -177s-159 64 -159 177c0 114 57 178 159 178s159 -64 159 -178zM766 157c0 80 -12 109 -44 109c-28 0 -40 -31 -40 -100c0 -81 11 -111 43 -111c34 0 41 48 41 102zM360 513c0 -113 -57 -177 -159 -177s-159 64 -159 177
c0 114 57 178 159 178s159 -64 159 -178zM243 510c0 80 -12 109 -44 109c-28 0 -40 -31 -40 -100c0 -81 11 -111 43 -111c34 0 41 48 41 102zM175 0l491 679h88l-492 -679h-87z" />
    <glyph glyph-name="ampersand" unicode="&#x26;" horiz-adv-x="802" 
d="M761 109v-109h-201l-61 75c-63 -57 -140 -87 -220 -87c-139 0 -242 89 -242 209c0 101 77 168 188 219c-38 45 -54 81 -54 124c0 90 74 150 186 150c105 0 181 -58 181 -139c0 -61 -41 -115 -118 -154l97 -123c30 42 67 105 82 141h162v-109h-82
c-19 -41 -55 -98 -80 -127l53 -70h109zM423 170l-129 162c-65 -26 -102 -67 -102 -114c0 -58 51 -103 115 -103c40 0 74 16 116 55zM352 483c42 18 66 43 66 68c0 27 -26 49 -56 49s-55 -19 -55 -43c0 -15 9 -29 45 -74z" />
    <glyph glyph-name="quoteright" unicode="&#x2019;" horiz-adv-x="354" 
d="M95 679h164v-164c0 -123 -46 -179 -163 -179v74c56 7 81 36 81 105h-82v164z" />
    <glyph glyph-name="parenleft" unicode="(" horiz-adv-x="344" 
d="M201 238c0 -187 21 -302 115 -353v-98c-153 63 -270 204 -270 451s117 388 270 451v-98c-94 -51 -115 -166 -115 -353z" />
    <glyph glyph-name="parenright" unicode=")" horiz-adv-x="344" 
d="M143 238c0 187 -21 302 -115 353v98c153 -63 270 -204 270 -451s-117 -388 -270 -451v98c94 51 115 166 115 353z" />
    <glyph glyph-name="asterisk" unicode="*" horiz-adv-x="573" 
d="M376 204l-50 69c0 37 -11 70 -40 117c-29 -47 -40 -80 -39 -117l-50 -69l-98 69l48 68c39 14 57 31 100 80c-74 16 -95 12 -126 0l-83 32l40 111l81 -24c21 -30 42 -44 102 -74c-4 61 -17 100 -35 130v83h121v-83c-20 -31 -29 -73 -36 -130c61 30 82 44 103 74l81 24
l40 -111l-83 -32c-36 16 -66 11 -126 0c36 -43 64 -67 100 -80l48 -68z" />
    <glyph glyph-name="plus" unicode="+" horiz-adv-x="668" 
d="M397 401h212v-127h-212v-212h-127v212h-212v127h212v212h127v-212z" />
    <glyph glyph-name="comma" unicode="," horiz-adv-x="354" 
d="M95 164h164v-164c0 -123 -46 -179 -163 -179v74c56 7 81 36 81 105h-82v164z" />
    <glyph glyph-name="hyphen" unicode="-" horiz-adv-x="344" 
d="M35 170v132h273v-132h-273z" />
    <glyph glyph-name="period" unicode="." horiz-adv-x="354" 
d="M95 164h164v-164h-164v164z" />
    <glyph glyph-name="slash" unicode="/" horiz-adv-x="508" 
d="M365 679h139l-360 -691h-140z" />
    <glyph glyph-name="zero" unicode="0" horiz-adv-x="552" 
d="M43 341c0 226 82 350 233 350s233 -124 233 -350s-82 -350 -233 -350s-233 124 -233 350zM276 101c53 0 78 63 78 240c0 187 -29 240 -79 240c-54 0 -77 -74 -77 -242c0 -163 24 -238 78 -238z" />
    <glyph glyph-name="one" unicode="1" horiz-adv-x="552" 
d="M114 0v109h94v461h-100v109h249v-570h89v-109h-332z" />
    <glyph glyph-name="two" unicode="2" horiz-adv-x="552" 
d="M484 197v-197h-440v36c0 276 281 325 281 477c0 42 -28 72 -65 72c-57 0 -77 -45 -82 -143l-125 6c-4 176 97 243 219 243c124 0 208 -76 208 -188c0 -200 -265 -207 -302 -394h198v88h108z" />
    <glyph glyph-name="three" unicode="3" horiz-adv-x="552" 
d="M44 208l131 10c4 -72 22 -117 89 -117c52 0 90 40 90 100c0 68 -40 110 -128 100v114c71 1 111 33 111 90c0 45 -30 76 -72 76c-47 0 -74 -33 -73 -90l-127 10c6 120 83 190 210 190c129 0 209 -68 209 -179c0 -72 -31 -120 -101 -154c85 -28 126 -81 126 -163
c0 -123 -92 -204 -232 -204c-143 0 -221 72 -233 217z" />
    <glyph glyph-name="four" unicode="4" horiz-adv-x="552" 
d="M486 100v-100h-270v100h73v87h-249c-11 37 -22 64 -36 93l292 410h133v-410h66v-93h-66v-87h57zM289 280v236h-2l-166 -236h168z" />
    <glyph glyph-name="five" unicode="5" horiz-adv-x="552" 
d="M36 182l128 16c11 -69 37 -97 90 -97c65 0 91 46 91 112c0 80 -30 121 -88 121c-35 0 -58 -15 -82 -53l-108 54l19 344h382v-160h-99l-10 51h-175l-9 -163c42 29 72 39 116 39c125 0 209 -90 209 -223c0 -106 -54 -232 -236 -232c-130 0 -211 67 -228 191z" />
    <glyph glyph-name="six" unicode="6" horiz-adv-x="552" 
d="M490 508l-117 -10c-13 45 -29 86 -80 86c-56 0 -100 -64 -101 -193c35 31 71 44 120 44c105 0 186 -72 186 -204c0 -161 -78 -240 -208 -240c-166 0 -245 110 -245 343c0 229 82 356 253 356c114 0 182 -68 192 -182zM192 296c1 -119 24 -195 95 -195c46 0 73 42 73 115
c0 67 -32 109 -83 109c-29 0 -58 -10 -85 -29z" />
    <glyph glyph-name="seven" unicode="7" horiz-adv-x="552" 
d="M422 109v-109h-328v109h84c8 137 83 339 173 464h-173v-95h-110v201h424v-84c-77 -95 -156 -336 -156 -486h86z" />
    <glyph glyph-name="eight" unicode="8" horiz-adv-x="552" 
d="M160 357c-66 36 -101 92 -101 157c0 108 85 177 217 177s217 -69 217 -177c0 -65 -35 -121 -101 -157c80 -30 122 -88 122 -166c0 -100 -64 -200 -238 -200c-172 0 -237 97 -237 200c0 78 42 136 121 166zM276 404c52 0 79 35 79 91c0 48 -22 90 -79 90
c-49 0 -79 -35 -79 -91c0 -54 31 -90 79 -90zM277 97c56 0 91 41 91 106c0 62 -32 106 -91 106c-55 0 -92 -44 -92 -107s36 -105 92 -105z" />
    <glyph glyph-name="nine" unicode="9" horiz-adv-x="552" 
d="M62 173l117 10c13 -45 29 -86 80 -86c56 0 100 64 101 193c-35 -31 -71 -44 -120 -44c-105 0 -186 72 -186 204c0 161 78 240 208 240c166 0 245 -110 245 -343c0 -229 -82 -356 -253 -356c-114 0 -182 68 -192 182zM360 385c-1 119 -24 195 -95 195
c-46 0 -73 -42 -73 -115c0 -67 32 -109 83 -109c29 0 58 10 85 29z" />
    <glyph glyph-name="colon" unicode=":" horiz-adv-x="354" 
d="M95 473h164v-164h-164v164zM95 164h164v-164h-164v164z" />
    <glyph glyph-name="semicolon" unicode=";" horiz-adv-x="354" 
d="M95 164h164v-164c0 -123 -46 -179 -163 -179v74c56 7 81 36 81 105h-82v164zM95 473h164v-164h-164v164z" />
    <glyph glyph-name="less" unicode="&#x3c;" horiz-adv-x="667" 
d="M58 276v116l550 228v-138l-375 -148l375 -148v-138z" />
    <glyph glyph-name="equal" unicode="=" horiz-adv-x="667" 
d="M58 280h551v-127h-551v127zM58 515h551v-127h-551v127z" />
    <glyph glyph-name="greater" unicode="&#x3e;" horiz-adv-x="667" 
d="M609 276l-550 -228v138l375 148l-375 148v138l550 -228v-116z" />
    <glyph glyph-name="question" unicode="?" horiz-adv-x="563" 
d="M283 235h-70l-14 173l6 3c74 -19 150 7 150 85c0 40 -25 90 -93 90c-53 0 -96 -34 -84 -101h-151c0 134 98 206 245 206c146 0 238 -77 238 -199c0 -111 -79 -192 -211 -186zM165 164h164v-164h-164v164z" />
    <glyph glyph-name="at" unicode="@" horiz-adv-x="979" 
d="M430 89c101 0 150 152 150 238c0 71 -38 114 -88 114c-113 0 -152 -157 -152 -233c0 -80 37 -119 90 -119zM532 728c247 0 414 -157 414 -372c0 -188 -135 -356 -323 -356c-45 0 -79 13 -89 57c-35 -37 -80 -57 -131 -57c-124 0 -189 92 -189 216c0 108 82 313 263 313
c56 0 99 -19 130 -66l12 54h129l-80 -377c-5 -25 3 -40 19 -40c37 0 171 91 171 260c0 120 -84 280 -332 280c-271 0 -401 -197 -401 -404c0 -225 147 -356 414 -356c129 0 248 29 329 129h104c-77 -150 -224 -217 -443 -217c-354 0 -499 205 -499 444
c0 202 121 492 502 492z" />
    <glyph glyph-name="A" unicode="A" horiz-adv-x="698" 
d="M699 115v-115h-330v115h85l-32 116h-176l-37 -116h91v-115h-302v115h85l133 449h-91v115h443v-115h-91l142 -449h80zM394 331l-55 205h-2l-61 -205h118z" />
    <glyph glyph-name="B" unicode="B" horiz-adv-x="698" 
d="M32 0v115h85v449h-85v115h353c71 0 138 -6 184 -52c30 -30 52 -74 52 -126c0 -67 -31 -113 -96 -140c82 -31 122 -85 122 -163c0 -105 -72 -198 -251 -198h-364zM294 115h71c81 0 100 40 100 90c0 63 -44 91 -95 91h-76v-181zM294 411h69c54 0 81 33 81 79
c0 45 -22 74 -89 74h-61v-153z" />
    <glyph glyph-name="C" unicode="C" horiz-adv-x="781" 
d="M598 679h115v-239h-115c-12 31 -33 69 -52 84c-48 37 -73 45 -117 45c-122 0 -202 -92 -202 -231c0 -132 78 -223 191 -223c94 0 164 65 189 177l134 -64c-50 -183 -202 -237 -336 -237c-290 0 -368 201 -368 349c0 207 145 350 357 350c83 0 148 -20 204 -64v53z" />
    <glyph glyph-name="D" unicode="D" horiz-adv-x="802" 
d="M33 0v115h103v449h-103v115h355c123 0 208 -23 277 -92c68 -68 97 -156 97 -249c0 -176 -109 -338 -325 -338h-404zM313 115h67c135 0 198 87 198 222c0 146 -72 227 -204 227h-61v-449z" />
    <glyph glyph-name="E" unicode="E" horiz-adv-x="667" 
d="M34 0v115h80v449h-80v115h597v-215h-129v100h-211v-156h170v-115h-170v-178h211v101h129v-216h-597z" />
    <glyph glyph-name="F" unicode="F" horiz-adv-x="646" 
d="M28 0v115h97v449h-97v115h608v-209h-130v94h-204v-157h147v-115h-147v-177h104v-115h-378z" />
    <glyph glyph-name="G" unicode="G" horiz-adv-x="844" 
d="M476 228v115h318c14 -273 -212 -352 -368 -352c-253 0 -378 159 -378 350c0 205 148 349 360 349c87 0 164 -24 212 -67v56h115v-241h-115c-13 40 -38 73 -71 96c-35 25 -72 35 -116 35c-116 0 -195 -88 -195 -217c0 -171 103 -237 200 -237c80 0 136 40 157 113h-119z
" />
    <glyph glyph-name="H" unicode="H" horiz-adv-x="760" 
d="M31 0v115h80v449h-80v115h326v-115h-69v-149h185v149h-69v115h326v-115h-80v-449h80v-115h-326v115h69v185h-185v-185h69v-115h-326z" />
    <glyph glyph-name="I" unicode="I" horiz-adv-x="427" 
d="M22 0v115h103v449h-103v115h383v-115h-103v-449h103v-115h-383z" />
    <glyph glyph-name="J" unicode="J" horiz-adv-x="406" 
d="M-1 -197v123c24 -6 35 -8 51 -8c45 0 76 24 76 82v564h-101v115h369v-115h-91v-551c0 -143 -71 -222 -202 -222c-30 0 -62 4 -102 12z" />
    <glyph glyph-name="K" unicode="K" horiz-adv-x="781" 
d="M20 0v115h92v449h-92v115h351v-115h-82v-449h82v-115h-351zM419 0v115h80l-205 242l222 207h-80v115h332v-115h-85l-191 -187l223 -262h69v-115h-365z" />
    <glyph glyph-name="L" unicode="L" horiz-adv-x="646" 
d="M28 0v115h97v449h-97v115h373v-115h-99v-449h200v210h133v-325h-607z" />
    <glyph glyph-name="M" unicode="M" horiz-adv-x="1042" 
d="M28 0v115h88v449h-88v115h340l149 -398l155 398h344v-115h-88v-449h89v-115h-350v115h89v449h-16l-212 -564h-74l-212 564h-16v-449h89v-115h-287z" />
    <glyph glyph-name="N" unicode="N" horiz-adv-x="792" 
d="M21 0v115h91v449h-91v115h284l249 -424h2v309h-88v115h305v-115h-96v-564h-152l-290 499h-2v-384h85v-115h-297z" />
    <glyph glyph-name="O" unicode="O" horiz-adv-x="854" 
d="M427 690c253 0 378 -170 378 -350c0 -174 -121 -349 -378 -349c-255 0 -377 173 -377 349c0 181 127 350 377 350zM427 566c-89 0 -187 -65 -187 -229c0 -131 76 -222 187 -222c93 0 188 70 188 226c0 140 -82 225 -188 225z" />
    <glyph glyph-name="P" unicode="P" horiz-adv-x="667" 
d="M387 115v-115h-356v115h85v449h-85v115h386c142 0 231 -96 231 -216c0 -117 -75 -216 -245 -216h-110v-132h94zM293 362h49c81 0 118 33 118 100c0 63 -42 102 -99 102h-68v-202z" />
    <glyph glyph-name="Q" unicode="Q" horiz-adv-x="854" 
d="M676 -58l-42 -112c-98 -12 -200 87 -287 87c-34 0 -67 -13 -99 -41l-44 66c28 33 63 49 115 57v2c-164 39 -269 170 -269 338c0 162 107 351 377 351c256 0 378 -174 378 -351c0 -202 -151 -334 -335 -345v-2c87 -30 125 -65 206 -50zM427 566c-89 0 -187 -65 -187 -229
c0 -131 76 -222 187 -222c93 0 188 70 188 226c0 140 -82 225 -188 225z" />
    <glyph glyph-name="R" unicode="R" horiz-adv-x="729" 
d="M731 115v-115h-207l-153 298h-78v-183h85v-115h-355v115h93v449h-93v115h423c132 0 204 -87 204 -190c0 -78 -38 -133 -117 -169l110 -205h88zM293 407h71c79 0 102 44 102 80c0 28 -17 77 -83 77h-90v-157z" />
    <glyph glyph-name="S" unicode="S" horiz-adv-x="531" 
d="M44 0v231h115c-2 -73 45 -123 104 -123c41 0 75 32 75 73c0 124 -301 107 -301 320c0 132 99 185 183 185c53 0 96 -21 124 -63h2v56h114v-206h-114c-9 62 -46 100 -98 100c-39 0 -67 -23 -67 -55c0 -110 313 -85 313 -325c0 -162 -125 -202 -197 -202
c-60 0 -106 22 -136 66h-2v-57h-115z" />
    <glyph glyph-name="T" unicode="T" horiz-adv-x="677" 
d="M647 679v-273h-118v158h-102v-449h102v-115h-381v115h102v449h-102v-158h-118v273h617z" />
    <glyph glyph-name="U" unicode="U" horiz-adv-x="677" 
d="M14 564v115h316v-115h-59v-345c0 -67 20 -112 88 -112c57 0 94 29 94 106v351h-56v115h262v-115h-85v-380c0 -158 -138 -192 -234 -192c-133 0 -246 51 -246 217v355h-80z" />
    <glyph glyph-name="V" unicode="V" horiz-adv-x="698" 
d="M284 -5l-204 569h-80v115h336v-115h-78l113 -340h2l114 340h-75v115h286v-115h-80l-197 -569h-137z" />
    <glyph glyph-name="W" unicode="W" horiz-adv-x="990" 
d="M267 -5l-196 569h-72v115h305v-115h-69l109 -326h2l103 326h-62v115h244v-115h-63l110 -326h2l107 326h-70v115h274v-115h-74l-190 -569h-123l-108 310h-2l-102 -310h-125z" />
    <glyph glyph-name="X" unicode="X" horiz-adv-x="740" 
d="M-2 0v115h98l167 234l-165 215h-93v115h349v-108h-65l101 -127l92 127h-62v108h302v-115h-95l-161 -222l174 -227h102v-115h-363v108h69l-105 141l-102 -141h69v-108h-312z" />
    <glyph glyph-name="Y" unicode="Y" horiz-adv-x="698" 
d="M172 0v115h96v183l-187 266h-85v115h334v-115h-62l103 -166l99 166h-59v115h291v-115h-85l-177 -266v-183h96v-115h-364z" />
    <glyph glyph-name="Z" unicode="Z" horiz-adv-x="646" 
d="M50 0v115l322 449h-189v-123h-115v238h525v-102l-332 -462h223v130h115v-245h-549z" />
    <glyph glyph-name="bracketleft" unicode="[" horiz-adv-x="417" 
d="M110 -203v882h276v-101h-123v-680h123v-101h-276z" />
    <glyph glyph-name="backslash" unicode="\" horiz-adv-x="508" 
d="M143 679l361 -691h-140l-360 691h139z" />
    <glyph glyph-name="bracketright" unicode="]" horiz-adv-x="417" 
d="M307 -203h-276v101h123v680h-123v101h276v-882z" />
    <glyph glyph-name="asciicircum" unicode="^" horiz-adv-x="583" 
d="M56 289l184 390h108l179 -390h-139l-96 239l-96 -239h-140z" />
    <glyph glyph-name="underscore" unicode="_" horiz-adv-x="500" 
d="M-6 -75h512v-50h-512v50z" />
    <glyph glyph-name="quoteleft" unicode="&#x2018;" horiz-adv-x="354" 
d="M259 336h-164v164c0 123 46 179 163 179v-74c-56 -7 -81 -36 -81 -105h82v-164z" />
    <glyph glyph-name="a" unicode="a" horiz-adv-x="583" 
d="M570 109v-109h-229v37c-44 -31 -82 -44 -128 -44c-99 0 -173 63 -173 148c0 92 81 159 194 159c43 0 69 -8 107 -21v26c0 49 -36 83 -90 83c-35 0 -59 -11 -86 -37l-122 21c38 77 110 112 229 112c155 0 222 -55 222 -181v-194h76zM341 175c-37 24 -64 34 -87 34
c-40 0 -69 -25 -69 -59c0 -36 27 -63 62 -63c30 0 54 13 94 49v39z" />
    <glyph glyph-name="b" unicode="b" horiz-adv-x="625" 
d="M247 679v-259c43 46 80 64 135 64c121 0 204 -101 204 -246c0 -186 -118 -245 -201 -245c-53 0 -97 19 -138 61v-54h-233v109h80v461h-80v109h233zM431 238c0 78 -33 122 -91 122c-59 0 -94 -47 -94 -126c0 -76 36 -124 93 -124s92 48 92 128z" />
    <glyph glyph-name="c" unicode="c" horiz-adv-x="563" 
d="M518 473v-192h-104c-24 52 -64 79 -116 79c-68 0 -111 -48 -111 -122c0 -82 40 -132 107 -132c47 0 93 29 120 78l117 -52c-42 -94 -120 -143 -229 -143c-163 0 -270 98 -270 248c0 140 101 243 239 243c52 0 94 -14 143 -46v39h104z" />
    <glyph glyph-name="d" unicode="d" horiz-adv-x="625" 
d="M606 109v-109h-226v56c-46 -45 -86 -63 -137 -63c-116 0 -204 106 -204 246c0 138 89 245 205 245c53 0 101 -23 136 -63v149h-73v109h226v-570h73zM382 239c0 71 -36 121 -96 121c-57 0 -92 -47 -92 -124c0 -76 36 -126 93 -126c47 0 95 37 95 129z" />
    <glyph glyph-name="e" unicode="e" horiz-adv-x="573" 
d="M416 142l120 -37c-49 -76 -129 -116 -232 -116c-164 0 -267 92 -267 239c0 148 107 256 255 256c142 0 256 -109 244 -279h-346c1 -54 30 -118 116 -118c40 0 66 13 110 55zM190 289h197c-8 60 -45 96 -100 96s-88 -31 -97 -96z" />
    <glyph glyph-name="f" unicode="f" horiz-adv-x="354" 
d="M324 109v-109h-291v109h65v255h-65v109h65v40c0 88 49 178 184 178c72 0 124 -22 157 -66l-115 -86c-11 37 -17 51 -38 51c-23 0 -35 -21 -35 -66v-51h73v-109h-73v-255h73z" />
    <glyph glyph-name="g" unicode="g" horiz-adv-x="625" 
d="M610 473v-109h-80v-353c0 -125 -60 -231 -250 -231c-95 0 -164 17 -210 52l73 99c41 -24 76 -34 117 -34c91 0 117 57 117 116v46c-53 -45 -95 -64 -144 -64c-112 0 -197 104 -197 242c0 139 88 243 205 243c54 0 100 -22 134 -65h2v58h233zM377 234
c0 75 -36 122 -94 122c-57 0 -92 -47 -92 -120s36 -121 92 -121c55 0 94 48 94 119z" />
    <glyph glyph-name="h" unicode="h" horiz-adv-x="625" 
d="M27 0v109h73v461h-73v109h226v-244c57 38 87 49 134 49c98 0 147 -68 147 -148v-227h69v-109h-222v303c0 41 -14 57 -48 57c-25 0 -46 -8 -80 -29v-222h69v-109h-295z" />
    <glyph glyph-name="i" unicode="i" horiz-adv-x="354" 
d="M43 364v109h222v-364h69v-109h-291v109h69v255h-69zM190 690c46 0 83 -36 83 -82s-37 -83 -83 -83s-82 37 -82 83s36 82 82 82z" />
    <glyph glyph-name="j" unicode="j" horiz-adv-x="354" 
d="M38 364v109h226v-488c0 -141 -63 -194 -216 -194c-23 0 -37 1 -55 2v122h36c54 0 82 13 82 72v377h-73zM183 690c46 0 83 -36 83 -82s-37 -83 -83 -83s-82 37 -82 83s36 82 82 82z" />
    <glyph glyph-name="k" unicode="k" horiz-adv-x="646" 
d="M35 0v105h73v465h-73v109h226v-428h2l161 125v2h-104v95h294v-95h-52l-138 -119l126 -154h64v-105h-144l-207 250h-2v-145h59v-105h-285z" />
    <glyph glyph-name="l" unicode="l" horiz-adv-x="354" 
d="M36 0v109h73v461h-73v109h226v-570h68v-109h-294z" />
    <glyph glyph-name="m" unicode="m" horiz-adv-x="990" 
d="M19 364v109h241v-39c55 32 101 46 150 46c63 0 115 -23 145 -65c68 46 121 65 187 65c86 0 162 -36 162 -156v-215h94v-109h-247v275c0 52 -19 76 -62 76c-33 0 -68 -11 -107 -32v-210h85v-109h-238v275c0 54 -18 76 -61 76c-34 0 -63 -9 -108 -32v-210h85v-109h-326v109
h88v255h-88z" />
    <glyph glyph-name="n" unicode="n" horiz-adv-x="625" 
d="M36 364v109h226v-44c49 36 88 51 136 51c63 0 144 -34 144 -161v-210h69v-109h-222v300c0 38 -16 53 -44 53c-26 0 -55 -11 -83 -31v-213h63v-109h-289v109h73v255h-73z" />
    <glyph glyph-name="o" unicode="o" horiz-adv-x="573" 
d="M535 237c0 -149 -101 -248 -249 -248c-140 0 -248 91 -248 248c0 166 120 247 248 247c138 0 249 -88 249 -247zM380 237c0 82 -34 130 -94 130s-93 -48 -93 -133c0 -80 35 -128 93 -128c60 0 94 48 94 131z" />
    <glyph glyph-name="p" unicode="p" horiz-adv-x="625" 
d="M340 -103v-109h-323v109h80v467h-80v109h233v-60c42 47 84 67 137 67c114 0 201 -106 201 -246c0 -144 -84 -245 -203 -245c-52 0 -92 17 -135 59v-151h90zM433 234c0 76 -35 122 -93 122s-91 -46 -91 -124c0 -77 36 -126 93 -126s91 48 91 128z" />
    <glyph glyph-name="q" unicode="q" horiz-adv-x="625" 
d="M285 -103h90v151c-43 -42 -83 -59 -135 -59c-119 0 -203 101 -203 245c0 140 87 246 201 246c53 0 95 -20 137 -67v60h233v-109h-80v-467h80v-109h-323v109zM192 234c0 -80 34 -128 91 -128c58 0 93 49 93 130c0 74 -35 120 -91 120c-58 0 -93 -46 -93 -122z" />
    <glyph glyph-name="r" unicode="r" horiz-adv-x="448" 
d="M360 109v-109h-333v109h88v255h-80v109h217v-120h2c28 82 87 127 165 127h22v-143h-18c-122 0 -155 -82 -155 -178v-50h92z" />
    <glyph glyph-name="s" unicode="s" horiz-adv-x="510" 
d="M58 0v163h110c1 -22 8 -36 30 -53c19 -14 44 -20 75 -20c46 0 77 18 77 46c0 69 -179 23 -275 119c-20 20 -35 51 -35 86c0 81 73 139 175 139c43 0 83 -8 119 -23v16h108v-137h-108c-9 33 -43 49 -103 49c-40 0 -65 -15 -65 -36c0 -66 308 -3 308 -199
c0 -92 -64 -159 -186 -159c-68 0 -98 12 -120 33v-24h-110z" />
    <glyph glyph-name="t" unicode="t" horiz-adv-x="344" 
d="M19 364v109h60v74l153 108v-182h85v-109h-85v-205c0 -41 7 -49 39 -49c16 0 25 2 46 9v-102c-38 -16 -76 -24 -113 -24c-60 0 -125 29 -125 113v258h-60z" />
    <glyph glyph-name="u" unicode="u" horiz-adv-x="625" 
d="M589 109v-109h-226v40c-46 -32 -90 -47 -135 -47c-90 0 -145 56 -145 147v224h-69v109h222v-295c0 -46 11 -61 46 -61c24 0 51 12 81 34v213h-63v109h216v-364h73z" />
    <glyph glyph-name="v" unicode="v" horiz-adv-x="573" 
d="M225 -7l-160 371h-69v109h278v-109h-49l74 -215l88 215h-49v109h239v-109h-69l-154 -371h-129z" />
    <glyph glyph-name="w" unicode="w" horiz-adv-x="813" 
d="M184 -7l-124 371h-60v109h257v-109h-51l57 -176h2l95 285h126l96 -285h2l54 176h-55v109h229v-109h-59l-122 -371h-130l-92 278h-2l-91 -278h-132z" />
    <glyph glyph-name="x" unicode="x" horiz-adv-x="563" 
d="M22 0v109h69l102 122l-102 133h-69v109h182l85 -130l93 130h143v-109h-64l-95 -114l111 -141h64v-109h-182l-92 133l-98 -133h-147z" />
    <glyph glyph-name="y" unicode="y" horiz-adv-x="594" 
d="M123 -212v109h90l31 84l-171 383h-69v109h274v-109h-46l79 -212l84 212h-51v109h240v-109h-69l-227 -576h-165z" />
    <glyph glyph-name="z" unicode="z" horiz-adv-x="531" 
d="M35 0v96l278 279h-152v-71h-103v169h435v-98l-277 -279h178v80h99v-176h-458z" />
    <glyph glyph-name="braceleft" unicode="{" horiz-adv-x="385" 
d="M29 289c83 0 107 51 107 142v61c0 103 19 187 184 187h43v-115c-102 0 -102 -5 -102 -137c0 -111 -24 -153 -89 -194c65 -41 89 -83 89 -194c0 -132 0 -137 102 -137v-115h-43c-165 0 -184 84 -184 187v61c0 91 -24 142 -107 142v112z" />
    <glyph glyph-name="bar" unicode="|" horiz-adv-x="611" 
d="M241 679h129v-894h-129v894z" />
    <glyph glyph-name="braceright" unicode="}" horiz-adv-x="385" 
d="M356 177c-83 0 -107 -51 -107 -142v-61c0 -103 -19 -187 -184 -187h-43v115c102 0 102 5 102 137c0 111 24 153 89 194c-65 41 -89 83 -89 194c0 132 0 137 -102 137v115h43c165 0 184 -84 184 -187v-61c0 -91 24 -142 107 -142v-112z" />
    <glyph glyph-name="asciitilde" unicode="~" horiz-adv-x="583" 
d="M32 254v126c43 46 88 67 147 67c102 0 166 -65 238 -65c47 0 92 23 134 69v-132c-35 -34 -91 -65 -143 -65c-89 0 -158 69 -242 69c-47 0 -90 -23 -134 -69z" />
    <glyph glyph-name="exclamdown" unicode="&#xa1;" horiz-adv-x="354" 
d="M253 -206h-152v186l40 256h72l40 -256v-186zM259 473v-164h-164v164h164z" />
    <glyph glyph-name="cent" unicode="&#xa2;" horiz-adv-x="563" 
d="M417 185l116 -52c-40 -104 -164 -169 -308 -135l-73 -218h-65l82 237c-90 43 -138 119 -138 218c0 177 155 273 300 237l80 214h63l-85 -238c7 -4 34 -21 42 -27v52h89v-195h-103c-18 31 -41 58 -67 69l-84 -233c51 -20 114 -9 151 71zM216 151l73 207
c-63 -4 -103 -52 -103 -123c0 -36 9 -61 30 -84z" />
    <glyph glyph-name="sterling" unicode="&#xa3;" horiz-adv-x="573" 
d="M477 219l70 -14c4 -143 -53 -214 -140 -214c-43 0 -90 19 -128 54c-34 -37 -70 -54 -109 -54c-66 0 -114 48 -114 115c0 65 46 113 108 113c22 0 44 -6 75 -20c0 28 -5 48 -19 88h-148v100h98c-34 65 -48 108 -48 147c0 93 85 157 207 157c114 0 181 -61 190 -173
l-117 -15c-4 66 -26 93 -76 93c-39 0 -68 -23 -68 -55c0 -45 37 -91 63 -154h126v-100h-104c5 -49 2 -94 -10 -134c28 -12 53 -18 73 -18c43 0 66 27 71 84zM220 104c-23 29 -44 42 -63 42c-21 0 -37 -17 -37 -39c0 -25 20 -45 44 -45c23 0 46 17 56 42z" />
    <glyph glyph-name="fraction" unicode="&#x2044;" 
d="M-123 0l492 679h87l-492 -679h-87z" />
    <glyph glyph-name="yen" unicode="&#xa5;" horiz-adv-x="698" 
d="M371 398l100 166h-60v115h292v-115h-85l-61 -92h138v-68h-184l-71 -107h255v-68h-255v-114h96v-115h-364v115h96v114h-264v68h264l-76 107h-188v68h142l-66 92h-85v115h335v-115h-63z" />
    <glyph glyph-name="florin" unicode="&#x192;" horiz-adv-x="552" 
d="M135 415l18 103h98l16 88c14 77 52 122 155 122c47 0 94 -7 136 -20l-27 -111c-30 9 -56 14 -78 14c-37 0 -49 -15 -56 -54l-7 -39h100l-18 -103h-100l-86 -488c-18 -104 -67 -137 -159 -137c-45 0 -102 8 -137 19l28 108c34 -7 62 -10 83 -10c38 0 48 13 59 82l73 426
h-98z" />
    <glyph glyph-name="section" unicode="&#xa7;" horiz-adv-x="521" 
d="M54 -29h129c2 -52 35 -84 86 -84c40 0 69 25 69 60c0 98 -314 100 -314 280c0 62 36 115 101 148c-53 38 -79 84 -79 139c0 105 83 174 210 174c133 0 211 -72 212 -183h-129c-4 55 -32 80 -87 80c-41 0 -70 -21 -70 -52c0 -91 166 -83 274 -191c25 -25 41 -59 41 -95
c0 -60 -30 -106 -99 -152c48 -30 76 -79 76 -135c0 -103 -86 -175 -208 -175c-123 0 -208 74 -212 186zM233 180l95 -43c31 24 46 49 46 77c0 29 -24 53 -77 76l-104 46c-27 -18 -45 -46 -45 -71c0 -34 22 -57 85 -85z" />
    <glyph glyph-name="currency" unicode="&#xa4;" horiz-adv-x="667" 
d="M67 525l83 84l67 -69c38 23 74 33 115 33s77 -10 118 -33l67 69l83 -84l-67 -68c22 -41 31 -75 31 -117c0 -43 -9 -77 -31 -114l67 -67l-83 -83l-67 66c-42 -23 -77 -33 -120 -33s-76 10 -113 33l-67 -66l-83 83l67 67c-22 40 -32 77 -32 119s10 76 32 112zM333 456
c-63 0 -115 -52 -115 -115s52 -115 115 -115c64 0 115 51 115 115c0 63 -51 115 -115 115z" />
    <glyph glyph-name="quotesingle" unicode="'" horiz-adv-x="281" 
d="M101 336l-14 179v164h108v-164l-14 -179h-80z" />
    <glyph glyph-name="quotedblleft" unicode="&#x201c;" horiz-adv-x="594" 
d="M504 336h-164v164c0 123 46 179 163 179v-74c-57 -7 -81 -37 -81 -105h82v-164zM255 336h-164v164c0 123 46 179 163 179v-74c-57 -7 -81 -35 -81 -105h82v-164z" />
    <glyph glyph-name="guillemotleft" unicode="&#xab;" horiz-adv-x="542" 
d="M427 236l110 -236h-144l-113 236l113 237h144zM153 236l110 -236h-144l-113 236l113 237h144z" />
    <glyph glyph-name="guilsinglleft" unicode="&#x2039;" horiz-adv-x="271" 
d="M152 236l110 -236h-144l-113 236l113 237h144z" />
    <glyph glyph-name="guilsinglright" unicode="&#x203a;" horiz-adv-x="271" 
d="M119 236l-110 237h144l113 -237l-113 -236h-144z" />
    <glyph glyph-name="endash" unicode="&#x2013;" horiz-adv-x="500" 
d="M-6 311h512v-122h-512v122z" />
    <glyph glyph-name="dagger" unicode="&#x2020;" horiz-adv-x="490" 
d="M278 377c0 -46 7 -81 34 -123v-106l-34 -353h-66l-35 353v107c21 29 35 61 35 122c-62 0 -88 -7 -116 -26h-92v122h94c21 -16 59 -25 114 -29c5 41 -9 105 -35 134v99h135v-99c-22 -23 -38 -85 -36 -134c66 6 84 11 118 29h91v-122h-91c-28 19 -53 26 -116 26z" />
    <glyph glyph-name="daggerdbl" unicode="&#x2021;" horiz-adv-x="490" 
d="M326 235c-41 -44 -51 -99 -48 -157c44 0 75 10 94 26h96v-121h-95c-26 15 -57 25 -94 26v-34c3 -20 8 -36 14 -49s12 -23 18 -32v-100h-132v100c7 11 13 22 18 34s10 26 13 44v38c-35 -1 -67 -9 -92 -27h-96v121h96c18 -14 47 -26 93 -26c5 65 -8 110 -48 158
c37 37 55 94 48 156c-45 0 -67 -11 -95 -26h-94v121h95c27 -19 53 -24 93 -27v21c0 13 -3 30 -9 48c-5 17 -13 34 -22 48v100h132v-100c-9 -12 -17 -31 -23 -49s-9 -37 -9 -49v-19c49 0 65 10 93 27h96v-121h-96c-26 16 -50 26 -93 26c-5 -51 5 -110 47 -157z" />
    <glyph glyph-name="periodcentered" unicode="&#xb7;" horiz-adv-x="365" 
d="M100 479h164v-164h-164v164z" />
    <glyph glyph-name="paragraph" unicode="&#xb6;" horiz-adv-x="552" 
d="M308 -212h-116v490c-121 9 -192 82 -192 197c0 121 75 204 214 204h338v-127h-55v-764h-116v764h-73v-764z" />
    <glyph glyph-name="bullet" unicode="&#x2022;" horiz-adv-x="354" 
d="M177 480c77 0 140 -62 140 -139s-63 -140 -140 -140s-139 63 -139 140s62 139 139 139z" />
    <glyph glyph-name="quotesinglbase" unicode="&#x201a;" horiz-adv-x="354" 
d="M95 164h164v-164c0 -123 -46 -179 -163 -179v74c56 7 81 36 81 105h-82v164z" />
    <glyph glyph-name="quotedblbase" unicode="&#x201e;" horiz-adv-x="594" 
d="M339 164h164v-164c0 -123 -46 -179 -163 -179v74c56 7 81 36 81 105h-82v164zM90 164h164v-164c0 -123 -46 -179 -163 -179v74c56 7 81 36 81 105h-82v164z" />
    <glyph glyph-name="quotedblright" unicode="&#x201d;" horiz-adv-x="594" 
d="M339 679h164v-164c0 -123 -46 -179 -163 -179v74c56 7 81 36 81 105h-82v164zM90 679h164v-164c0 -123 -46 -179 -163 -179v74c56 7 81 36 81 105h-82v164z" />
    <glyph glyph-name="guillemotright" unicode="&#xbb;" horiz-adv-x="542" 
d="M389 236l-110 237h144l113 -237l-113 -236h-144zM115 236l-110 237h144l113 -237l-113 -236h-144z" />
    <glyph glyph-name="ellipsis" unicode="&#x2026;" horiz-adv-x="1000" 
d="M418 164h164v-164h-164v164zM751 164h164v-164h-164v164zM85 164h164v-164h-164v164z" />
    <glyph glyph-name="perthousand" unicode="&#x2030;" horiz-adv-x="1167" 
d="M1138 161c0 -113 -57 -177 -159 -177s-159 64 -159 177c0 114 57 178 159 178s159 -64 159 -178zM1021 158c0 80 -12 109 -44 109c-28 0 -40 -31 -40 -100c0 -81 11 -111 43 -111c34 0 41 48 41 102zM756 161c0 -113 -57 -177 -159 -177s-159 64 -159 177
c0 114 57 178 159 178s159 -64 159 -178zM639 158c0 80 -12 109 -44 109c-28 0 -40 -31 -40 -100c0 -81 11 -111 43 -111c34 0 41 48 41 102zM348 513c0 -113 -57 -177 -159 -177s-159 64 -159 177c0 114 57 178 159 178s159 -64 159 -178zM231 510c0 80 -12 109 -44 109
c-28 0 -40 -31 -40 -100c0 -81 11 -111 43 -111c34 0 41 48 41 102zM108 0l492 679h87l-492 -679h-87z" />
    <glyph glyph-name="questiondown" unicode="&#xbf;" horiz-adv-x="563" 
d="M280 249h70l14 -173l-6 -3c-74 19 -150 -7 -150 -85c0 -40 25 -90 93 -90c53 0 96 34 84 101h151c0 -134 -98 -206 -245 -206c-146 0 -238 77 -238 199c0 111 79 192 211 186zM398 320h-164v164h164v-164z" />
    <glyph glyph-name="grave" unicode="`" 
d="M266 534h-78l-180 155h180z" />
    <glyph glyph-name="acute" unicode="&#xb4;" 
d="M67 534l78 155h180l-180 -155h-78z" />
    <glyph glyph-name="circumflex" unicode="&#x2c6;" 
d="M-25 520l118 180h147l119 -180h-85l-109 107l-102 -107h-88z" />
    <glyph glyph-name="tilde" unicode="&#x2dc;" 
d="M288 685h70c3 -93 -50 -157 -114 -157c-50 0 -119 56 -156 56c-24 0 -38 -19 -39 -53h-73c0 46 11 85 31 112c19 28 48 44 82 44c58 0 116 -57 156 -57c23 0 41 23 43 55z" />
    <glyph glyph-name="macron" unicode="&#xaf;" 
d="M-60 542v102h454v-102h-454z" />
    <glyph glyph-name="breve" unicode="&#x2d8;" 
d="M250 699h106c-10 -102 -93 -180 -190 -180s-179 78 -190 180h106c13 -42 42 -63 84 -63s71 21 84 63z" />
    <glyph glyph-name="dotaccent" unicode="&#x2d9;" 
d="M166 680c39 0 71 -31 71 -70s-32 -71 -71 -71s-70 32 -70 71s31 70 70 70z" />
    <glyph glyph-name="dieresis" unicode="&#xa8;" 
d="M277 680c39 0 71 -31 71 -70s-32 -71 -71 -71s-70 32 -70 71s31 70 70 70zM55 680c39 0 71 -31 71 -70s-32 -71 -71 -71s-70 32 -70 71s31 70 70 70z" />
    <glyph glyph-name="ring" unicode="&#x2da;" 
d="M166 722c57 0 104 -46 104 -103s-47 -104 -104 -104s-103 47 -103 104s46 103 103 103zM166 672c-30 0 -53 -23 -53 -53s23 -54 53 -54s54 24 54 54s-24 53 -54 53z" />
    <glyph glyph-name="cedilla" unicode="&#xb8;" 
d="M72 12h85v-25c52 -9 87 -41 87 -86c0 -93 -91 -109 -234 -102v50c47 0 103 3 103 39c0 21 -19 32 -59 35z" />
    <glyph glyph-name="hungarumlaut" unicode="&#x2dd;" 
d="M185 534l78 155h180l-180 -155h-78zM-51 534l78 155h180l-180 -155h-78z" />
    <glyph glyph-name="ogonek" unicode="&#x2db;" 
d="M94 0h90c-13 -27 -18 -44 -18 -62c0 -31 20 -51 52 -51c15 0 28 2 53 10v-109c-28 -9 -48 -12 -70 -12c-79 0 -137 54 -137 128c0 41 11 68 30 96z" />
    <glyph glyph-name="caron" unicode="&#x2c7;" 
d="M-26 700h88l102 -107l109 107h85l-119 -180h-147z" />
    <glyph glyph-name="emdash" unicode="&#x2014;" horiz-adv-x="1000" 
d="M-6 311h1012v-122h-1012v122z" />
    <glyph glyph-name="AE" unicode="&#xc6;" horiz-adv-x="990" 
d="M-2 0v115h71l194 449h-101v115h792v-215h-130v100h-203v-155h164v-115h-164v-179h203v103h130v-218h-587v115h77v179h-163l-80 -179h80v-115h-283zM444 394v181h-44l-77 -181h121z" />
    <glyph glyph-name="ordfeminine" unicode="&#xaa;" horiz-adv-x="396" 
d="M385 464v-65h-147v22c-29 -18 -54 -26 -84 -26c-64 0 -112 37 -112 88c0 56 52 96 125 96c22 0 49 -6 71 -15v18c0 28 -24 49 -59 49c-22 0 -39 -6 -56 -22l-79 13c25 48 71 69 150 69c110 0 142 -50 142 -107v-120h49zM238 503c-23 14 -42 21 -57 21
c-26 0 -44 -15 -44 -35c0 -22 17 -38 40 -38c19 0 35 8 61 29v23z" />
    <glyph glyph-name="Lslash" unicode="&#x141;" horiz-adv-x="646" 
d="M302 337v-222h200v210h133v-325h-607v115h97v129l-97 -58v112l97 58v208h-97v115h373v-115h-99v-115l111 66v-112z" />
    <glyph glyph-name="Oslash" unicode="&#xd8;" horiz-adv-x="854" 
d="M642 637l57 67l57 -42l-57 -67l3 -2c68 -67 103 -153 103 -252c0 -173 -121 -350 -377 -350c-85 0 -153 17 -213 53l-67 -76l-57 32l69 85c-71 65 -110 155 -110 256c0 162 110 349 378 349c85 0 155 -17 214 -53zM270 210l274 314c-33 28 -72 42 -116 42
c-112 0 -188 -91 -188 -224c0 -51 10 -95 30 -132zM587 470l-274 -313c34 -28 72 -42 115 -42c111 0 187 91 187 224c0 50 -10 96 -28 131z" />
    <glyph glyph-name="OE" unicode="&#x152;" horiz-adv-x="1010" 
d="M974 217v-217h-571c-253 0 -355 161 -355 336c0 111 33 197 94 258c60 60 137 85 290 85h542v-216h-129v101h-196v-157h157v-115h-157v-177h196v102h129zM472 564h-60c-148 0 -180 -121 -180 -224c0 -129 58 -224 198 -224h42v448z" />
    <glyph glyph-name="ordmasculine" unicode="&#xba;" horiz-adv-x="375" 
d="M188 393c-97 0 -162 60 -162 149s65 149 162 149s161 -60 161 -149s-64 -149 -161 -149zM187 463c39 0 61 29 61 79c0 49 -22 78 -60 78s-61 -29 -61 -79c0 -49 23 -78 60 -78z" />
    <glyph glyph-name="ae" unicode="&#xe6;" horiz-adv-x="885" 
d="M728 145l117 -36c-45 -76 -129 -120 -232 -120c-89 0 -166 36 -213 99c-68 -71 -119 -99 -181 -99c-93 0 -160 64 -160 152c0 95 73 159 181 159c39 0 74 -7 114 -23v15c0 68 -46 94 -91 94c-29 0 -55 -11 -85 -35l-120 22c40 75 114 111 230 111c72 0 123 -14 169 -46
c42 32 86 46 145 46c163 0 252 -109 251 -277h-346c5 -70 48 -116 111 -116c40 0 71 15 110 54zM506 290h194c-10 57 -48 92 -101 92c-51 0 -87 -35 -93 -92zM354 175c-40 28 -61 36 -86 36c-37 0 -65 -29 -65 -66c0 -33 21 -57 50 -57s63 18 101 52v35z" />
    <glyph glyph-name="dotlessi" unicode="&#x131;" horiz-adv-x="354" 
d="M43 364v109h222v-364h69v-109h-291v109h69v255h-69z" />
    <glyph glyph-name="lslash" unicode="&#x142;" horiz-adv-x="354" 
d="M262 341v-232h68v-109h-294v109h73v134l-105 -75v120l105 75v207h-73v109h226v-218l105 75v-120z" />
    <glyph glyph-name="oslash" unicode="&#xf8;" horiz-adv-x="573" 
d="M42 0l58 64c-39 42 -62 104 -62 172c0 157 117 248 248 248c49 0 101 -14 140 -38l60 70l46 -41l-58 -67c39 -42 61 -103 61 -172c0 -152 -111 -247 -247 -247c-52 0 -104 14 -140 38l-59 -70zM202 183l139 164c-15 13 -32 20 -54 20c-57 0 -94 -49 -94 -125
c0 -21 3 -40 9 -59zM372 289l-139 -163c15 -13 33 -20 55 -20c57 0 92 49 92 127c0 20 -3 38 -8 56z" />
    <glyph glyph-name="oe" unicode="&#x153;" horiz-adv-x="1010" 
d="M844 145l120 -36c-35 -74 -129 -120 -247 -120c-92 0 -167 24 -215 68c-62 -48 -123 -68 -207 -68c-179 0 -272 119 -272 246c0 105 72 249 275 249c82 0 141 -20 204 -70c44 44 115 70 193 70c180 0 286 -146 269 -278h-387c7 -71 61 -115 138 -115c57 0 96 17 129 54z
M582 290h233c-13 58 -59 94 -120 94c-59 0 -106 -39 -113 -94zM421 241c0 82 -51 142 -120 142c-70 0 -123 -62 -123 -144c0 -86 53 -150 123 -150s120 63 120 152z" />
    <glyph glyph-name="germandbls" unicode="&#xdf;" horiz-adv-x="646" 
d="M289 109v-109h-267v109h80v367c0 58 13 109 52 148c46 46 100 67 179 67c143 0 232 -63 232 -164c0 -63 -36 -112 -104 -140c93 -31 136 -90 136 -188c0 -127 -71 -206 -185 -206c-26 0 -47 4 -74 15v101c12 -5 19 -6 29 -6c57 0 75 43 75 99c0 97 -43 120 -104 123v110
c46 2 76 31 76 74c0 45 -33 78 -79 78c-58 0 -80 -38 -80 -116v-362h34z" />
    <glyph glyph-name="logicalnot" unicode="&#xac;" horiz-adv-x="668" 
d="M58 520h551v-365h-127v238h-424v127z" />
    <glyph glyph-name="mu" unicode="&#xb5;" horiz-adv-x="615" 
d="M73 473h136v-201c0 -104 18 -174 97 -174c54 0 100 46 100 145v230h139v-473h-128v63h-2c-21 -51 -65 -74 -103 -74c-45 0 -77 19 -101 75h-2v-276h-136v685z" />
    <glyph glyph-name="trademark" unicode="&#x2122;" horiz-adv-x="1000" 
d="M196 280v330h-124v69h325v-69h-120v-330h-81zM444 280v399h127l72 -275h2l72 275h127v-399h-77v318h-2l-85 -318h-74l-83 318h-2v-318h-77z" />
    <glyph glyph-name="Eth" unicode="&#xd0;" horiz-adv-x="802" 
d="M33 0v115h103v179h-103v91h103v179h-103v115h355c123 0 208 -23 277 -92c68 -68 97 -156 97 -249c0 -176 -109 -338 -325 -338h-404zM313 115h67c135 0 198 87 198 222c0 146 -72 227 -204 227h-61v-179h125v-91h-125v-179z" />
    <glyph glyph-name="onehalf" unicode="&#xbd;" horiz-adv-x="927" 
d="M857 109v-109h-269v18c0 151 163 166 163 246c0 20 -13 34 -32 34c-28 0 -40 -21 -42 -73l-89 7c-2 85 51 127 136 127c78 0 131 -40 131 -99c0 -104 -155 -104 -178 -198h104v47h76zM174 0l492 679h87l-492 -679h-87zM93 332v62h57v229h-57v62h157v-291h52v-62h-209z
" />
    <glyph glyph-name="plusminus" unicode="&#xb1;" horiz-adv-x="668" 
d="M58 94h551v-127h-551v127zM397 489h212v-127h-212v-212h-127v212h-212v127h212v212h127v-212z" />
    <glyph glyph-name="Thorn" unicode="&#xde;" horiz-adv-x="667" 
d="M387 115v-115h-356v115h85v449h-85v115h356v-115h-94v-38h98c162 0 257 -62 257 -186c0 -113 -84 -187 -252 -187h-103v-38h94zM293 254h66c58 0 99 25 99 85c0 61 -44 86 -99 86h-66v-171z" />
    <glyph glyph-name="onequarter" unicode="&#xbc;" horiz-adv-x="927" 
d="M861 57v-57h-175v57h44v38h-145c-9 21 -13 31 -23 48l174 216h89v-210h36v-54h-36v-38h36zM174 0l492 679h87l-492 -679h-87zM730 149v103h-2l-82 -103h84zM93 332v62h57v229h-57v62h157v-291h52v-62h-209z" />
    <glyph glyph-name="divide" unicode="&#xf7;" horiz-adv-x="668" 
d="M333 203c41 0 75 -33 75 -74s-34 -75 -75 -75s-74 34 -74 75s33 74 74 74zM333 621c41 0 75 -33 75 -74s-34 -75 -75 -75s-74 34 -74 75s33 74 74 74zM58 401h551v-127h-551v127z" />
    <glyph glyph-name="brokenbar" unicode="&#xa6;" horiz-adv-x="611" 
d="M241 166h129v-381h-129v381zM241 679h129v-381h-129v381z" />
    <glyph glyph-name="degree" unicode="&#xb0;" horiz-adv-x="396" 
d="M197 690c93 0 169 -75 169 -168s-76 -169 -169 -169s-168 76 -168 169s75 168 168 168zM197 626c-58 0 -104 -46 -104 -104s46 -105 104 -105s105 47 105 105s-47 104 -105 104z" />
    <glyph glyph-name="thorn" unicode="&#xfe;" horiz-adv-x="625" 
d="M343 -103v-109h-326v109h80v673h-80v109h233v-266c53 52 84 67 135 67c117 0 203 -105 203 -249c0 -143 -84 -242 -205 -242c-52 0 -87 16 -133 59v-151h93zM433 234c0 76 -35 122 -93 122s-91 -46 -91 -124c0 -77 36 -126 93 -126s91 48 91 128z" />
    <glyph glyph-name="threequarters" unicode="&#xbe;" horiz-adv-x="927" 
d="M861 57v-57h-175v57h44v38h-145c-9 21 -13 31 -23 48l174 216h89v-210h36v-54h-36v-38h36zM174 0l492 679h87l-492 -679h-87zM730 149v103h-2l-82 -103h84zM57 444l89 6c1 -40 17 -61 48 -61c27 0 46 20 46 49c0 31 -19 48 -52 48h-23v64c45 0 66 14 66 43
c0 22 -15 36 -37 36c-25 0 -38 -16 -37 -44h-87c1 28 14 59 25 69c21 20 54 37 106 37c78 0 128 -37 128 -94c0 -36 -18 -61 -55 -79c47 -15 70 -43 70 -83c0 -64 -57 -107 -144 -107c-88 0 -135 39 -143 116z" />
    <glyph glyph-name="registered" unicode="&#xae;" horiz-adv-x="740" 
d="M547 156h-100c-33 68 -55 111 -86 142c-20 20 -31 21 -64 21h-15v-163h-81v397h195c92 0 127 -55 127 -111c0 -61 -41 -103 -108 -111v-2c45 -15 55 -42 132 -173zM282 382h71c46 0 85 13 85 55c0 34 -27 54 -83 54h-73v-109zM370 656c-166 0 -300 -133 -300 -299
s134 -301 300 -301s300 135 300 301s-134 299 -300 299zM370 730c207 0 374 -167 374 -374s-167 -374 -374 -374s-374 167 -374 374s167 374 374 374z" />
    <glyph glyph-name="minus" unicode="&#x2212;" horiz-adv-x="668" 
d="M58 401h551v-127h-551v127z" />
    <glyph glyph-name="eth" unicode="&#xf0;" horiz-adv-x="573" 
d="M195 246c0 -92 31 -138 93 -138c61 0 99 52 99 135c0 78 -36 126 -95 126c-57 0 -97 -50 -97 -123zM513 640l-125 -48c100 -95 154 -219 154 -316c0 -174 -101 -285 -258 -285c-144 0 -244 102 -244 248c0 159 124 247 225 247c24 0 63 -5 101 -35l2 2
c-16 31 -51 66 -89 96l-126 -49l-65 49l125 49c-34 25 -62 41 -79 49l108 43c31 -13 59 -29 84 -47l120 47z" />
    <glyph glyph-name="multiply" unicode="&#xd7;" horiz-adv-x="667" 
d="M507 71l-173 173l-173 -173l-89 89l172 172l-174 174l90 90l174 -174l174 174l90 -90l-174 -174l172 -172z" />
    <glyph glyph-name="copyright" unicode="&#xa9;" horiz-adv-x="740" 
d="M460 301l79 -27c-25 -81 -83 -126 -164 -126c-115 0 -189 81 -189 206c0 129 73 210 190 210c81 0 134 -38 163 -119l-79 -19c-18 47 -45 68 -87 68c-64 0 -101 -51 -101 -138c0 -88 36 -139 97 -139c45 0 75 28 91 84zM370 656c-166 0 -300 -133 -300 -299
s134 -301 300 -301s300 135 300 301s-134 299 -300 299zM370 730c207 0 374 -167 374 -374s-167 -374 -374 -374s-374 167 -374 374s167 374 374 374z" />
    <glyph glyph-name="Aacute" unicode="&#xc1;" horiz-adv-x="698" 
d="M699 115v-115h-330v115h85l-32 116h-176l-37 -116h91v-115h-302v115h85l133 449h-91v115h443v-115h-91l142 -449h80zM394 331l-55 205h-2l-61 -205h118zM250 740l78 155h180l-180 -155h-78z" />
    <glyph glyph-name="Acircumflex" unicode="&#xc2;" horiz-adv-x="698" 
d="M699 115v-115h-330v115h85l-32 116h-176l-37 -116h91v-115h-302v115h85l133 449h-91v115h443v-115h-91l142 -449h80zM394 331l-55 205h-2l-61 -205h118zM158 726l118 180h147l119 -180h-85l-109 107l-102 -107h-88z" />
    <glyph glyph-name="Adieresis" unicode="&#xc4;" horiz-adv-x="698" 
d="M699 115v-115h-330v115h85l-32 116h-176l-37 -116h91v-115h-302v115h85l133 449h-91v115h443v-115h-91l142 -449h80zM394 331l-55 205h-2l-61 -205h118zM238 886c39 0 71 -31 71 -70s-32 -71 -71 -71s-70 32 -70 71s31 70 70 70zM460 886c39 0 71 -31 71 -70
s-32 -71 -71 -71s-70 32 -70 71s31 70 70 70z" />
    <glyph glyph-name="Agrave" unicode="&#xc0;" horiz-adv-x="698" 
d="M699 115v-115h-330v115h85l-32 116h-176l-37 -116h91v-115h-302v115h85l133 449h-91v115h443v-115h-91l142 -449h80zM394 331l-55 205h-2l-61 -205h118zM449 740h-78l-180 155h180z" />
    <glyph glyph-name="Aring" unicode="&#xc5;" horiz-adv-x="698" 
d="M699 115v-115h-330v115h85l-32 116h-176l-37 -116h91v-115h-302v115h85l133 449h-91v115h443v-115h-91l142 -449h80zM394 331l-55 205h-2l-61 -205h118zM349 928c57 0 104 -46 104 -103s-47 -104 -104 -104s-103 47 -103 104s46 103 103 103zM349 878
c-30 0 -53 -23 -53 -53s23 -54 53 -54s54 24 54 54s-24 53 -54 53z" />
    <glyph glyph-name="Atilde" unicode="&#xc3;" horiz-adv-x="698" 
d="M699 115v-115h-330v115h85l-32 116h-176l-37 -116h91v-115h-302v115h85l133 449h-91v115h443v-115h-91l142 -449h80zM394 331l-55 205h-2l-61 -205h118zM471 891h70c3 -93 -50 -157 -114 -157c-50 0 -119 56 -156 56c-24 0 -38 -19 -39 -53h-73c0 46 11 85 31 112
c19 28 48 44 82 44c58 0 116 -57 156 -57c23 0 41 23 43 55z" />
    <glyph glyph-name="Ccedilla" unicode="&#xc7;" horiz-adv-x="781" 
d="M294 -84l17 83c-213 38 -274 210 -274 341c0 207 145 350 357 350c83 0 148 -20 204 -64v53h115v-239h-115c-12 31 -33 69 -52 84c-48 37 -73 45 -117 45c-122 0 -202 -92 -202 -231c0 -132 78 -223 191 -223c94 0 164 65 189 177l134 -64c-54 -188 -202 -237 -347 -237
l-2 -11c57 -5 92 -41 92 -86c0 -93 -91 -109 -234 -102v50c47 0 103 3 103 39c0 21 -19 32 -59 35z" />
    <glyph glyph-name="Eacute" unicode="&#xc9;" horiz-adv-x="667" 
d="M34 0v115h80v449h-80v115h597v-215h-129v100h-211v-156h170v-115h-170v-178h211v101h129v-216h-597zM234 740l78 155h180l-180 -155h-78z" />
    <glyph glyph-name="Ecircumflex" unicode="&#xca;" horiz-adv-x="667" 
d="M34 0v115h80v449h-80v115h597v-215h-129v100h-211v-156h170v-115h-170v-178h211v101h129v-216h-597zM142 726l118 180h147l119 -180h-85l-109 107l-102 -107h-88z" />
    <glyph glyph-name="Edieresis" unicode="&#xcb;" horiz-adv-x="667" 
d="M34 0v115h80v449h-80v115h597v-215h-129v100h-211v-156h170v-115h-170v-178h211v101h129v-216h-597zM444 886c39 0 71 -31 71 -70s-32 -71 -71 -71s-70 32 -70 71s31 70 70 70zM222 886c39 0 71 -31 71 -70s-32 -71 -71 -71s-70 32 -70 71s31 70 70 70z" />
    <glyph glyph-name="Egrave" unicode="&#xc8;" horiz-adv-x="667" 
d="M34 0v115h80v449h-80v115h597v-215h-129v100h-211v-156h170v-115h-170v-178h211v101h129v-216h-597zM433 740h-78l-180 155h180z" />
    <glyph glyph-name="Iacute" unicode="&#xcd;" horiz-adv-x="427" 
d="M22 0v115h103v449h-103v115h383v-115h-103v-449h103v-115h-383zM114 740l78 155h180l-180 -155h-78z" />
    <glyph glyph-name="Icircumflex" unicode="&#xce;" horiz-adv-x="427" 
d="M22 0v115h103v449h-103v115h383v-115h-103v-449h103v-115h-383zM22 726l118 180h147l119 -180h-85l-109 107l-102 -107h-88z" />
    <glyph glyph-name="Idieresis" unicode="&#xcf;" horiz-adv-x="427" 
d="M22 0v115h103v449h-103v115h383v-115h-103v-449h103v-115h-383zM324 886c39 0 71 -31 71 -70s-32 -71 -71 -71s-70 32 -70 71s31 70 70 70zM102 886c39 0 71 -31 71 -70s-32 -71 -71 -71s-70 32 -70 71s31 70 70 70z" />
    <glyph glyph-name="Igrave" unicode="&#xcc;" horiz-adv-x="427" 
d="M22 0v115h103v449h-103v115h383v-115h-103v-449h103v-115h-383zM313 740h-78l-180 155h180z" />
    <glyph glyph-name="Ntilde" unicode="&#xd1;" horiz-adv-x="792" 
d="M21 0v115h91v449h-91v115h284l249 -424h2v309h-88v115h305v-115h-96v-564h-152l-290 499h-2v-384h85v-115h-297zM518 891h70c3 -93 -50 -157 -114 -157c-50 0 -119 56 -156 56c-24 0 -38 -19 -39 -53h-73c0 46 11 85 31 112c19 28 48 44 82 44c58 0 116 -57 156 -57
c23 0 41 23 43 55z" />
    <glyph glyph-name="Oacute" unicode="&#xd3;" horiz-adv-x="854" 
d="M427 690c253 0 378 -170 378 -350c0 -174 -121 -349 -378 -349c-255 0 -377 173 -377 349c0 181 127 350 377 350zM427 566c-89 0 -187 -65 -187 -229c0 -131 76 -222 187 -222c93 0 188 70 188 226c0 140 -82 225 -188 225zM328 740l78 155h180l-180 -155h-78z" />
    <glyph glyph-name="Ocircumflex" unicode="&#xd4;" horiz-adv-x="854" 
d="M427 690c253 0 378 -170 378 -350c0 -174 -121 -349 -378 -349c-255 0 -377 173 -377 349c0 181 127 350 377 350zM427 566c-89 0 -187 -65 -187 -229c0 -131 76 -222 187 -222c93 0 188 70 188 226c0 140 -82 225 -188 225zM236 726l118 180h147l119 -180h-85l-109 107
l-102 -107h-88z" />
    <glyph glyph-name="Odieresis" unicode="&#xd6;" horiz-adv-x="854" 
d="M427 690c253 0 378 -170 378 -350c0 -174 -121 -349 -378 -349c-255 0 -377 173 -377 349c0 181 127 350 377 350zM427 566c-89 0 -187 -65 -187 -229c0 -131 76 -222 187 -222c93 0 188 70 188 226c0 140 -82 225 -188 225zM538 886c39 0 71 -31 71 -70s-32 -71 -71 -71
s-70 32 -70 71s31 70 70 70zM316 886c39 0 71 -31 71 -70s-32 -71 -71 -71s-70 32 -70 71s31 70 70 70z" />
    <glyph glyph-name="Ograve" unicode="&#xd2;" horiz-adv-x="854" 
d="M427 690c253 0 378 -170 378 -350c0 -174 -121 -349 -378 -349c-255 0 -377 173 -377 349c0 181 127 350 377 350zM427 566c-89 0 -187 -65 -187 -229c0 -131 76 -222 187 -222c93 0 188 70 188 226c0 140 -82 225 -188 225zM527 740h-78l-180 155h180z" />
    <glyph glyph-name="Otilde" unicode="&#xd5;" horiz-adv-x="854" 
d="M427 690c253 0 378 -170 378 -350c0 -174 -121 -349 -378 -349c-255 0 -377 173 -377 349c0 181 127 350 377 350zM427 566c-89 0 -187 -65 -187 -229c0 -131 76 -222 187 -222c93 0 188 70 188 226c0 140 -82 225 -188 225zM549 891h70c3 -93 -50 -157 -114 -157
c-50 0 -119 56 -156 56c-24 0 -38 -19 -39 -53h-73c0 46 11 85 31 112c19 28 48 44 82 44c58 0 116 -57 156 -57c23 0 41 23 43 55z" />
    <glyph glyph-name="Scaron" unicode="&#x160;" horiz-adv-x="531" 
d="M44 0v231h115c-2 -73 45 -123 104 -123c41 0 75 32 75 73c0 124 -301 107 -301 320c0 132 99 185 183 185c53 0 96 -21 124 -63h2v56h114v-206h-114c-9 62 -46 100 -98 100c-39 0 -67 -23 -67 -55c0 -110 313 -85 313 -325c0 -162 -125 -202 -197 -202
c-60 0 -106 22 -136 66h-2v-57h-115zM73 906h88l102 -107l109 107h85l-119 -180h-147z" />
    <glyph glyph-name="Uacute" unicode="&#xda;" horiz-adv-x="677" 
d="M14 564v115h316v-115h-59v-345c0 -67 20 -112 88 -112c57 0 94 29 94 106v351h-56v115h262v-115h-85v-380c0 -158 -138 -192 -234 -192c-133 0 -246 51 -246 217v355h-80zM239 740l78 155h180l-180 -155h-78z" />
    <glyph glyph-name="Ucircumflex" unicode="&#xdb;" horiz-adv-x="677" 
d="M14 564v115h316v-115h-59v-345c0 -67 20 -112 88 -112c57 0 94 29 94 106v351h-56v115h262v-115h-85v-380c0 -158 -138 -192 -234 -192c-133 0 -246 51 -246 217v355h-80zM147 726l118 180h147l119 -180h-85l-109 107l-102 -107h-88z" />
    <glyph glyph-name="Udieresis" unicode="&#xdc;" horiz-adv-x="677" 
d="M14 564v115h316v-115h-59v-345c0 -67 20 -112 88 -112c57 0 94 29 94 106v351h-56v115h262v-115h-85v-380c0 -158 -138 -192 -234 -192c-133 0 -246 51 -246 217v355h-80zM449 886c39 0 71 -31 71 -70s-32 -71 -71 -71s-70 32 -70 71s31 70 70 70zM227 886
c39 0 71 -31 71 -70s-32 -71 -71 -71s-70 32 -70 71s31 70 70 70z" />
    <glyph glyph-name="Ugrave" unicode="&#xd9;" horiz-adv-x="677" 
d="M14 564v115h316v-115h-59v-345c0 -67 20 -112 88 -112c57 0 94 29 94 106v351h-56v115h262v-115h-85v-380c0 -158 -138 -192 -234 -192c-133 0 -246 51 -246 217v355h-80zM438 740h-78l-180 155h180z" />
    <glyph glyph-name="Yacute" unicode="&#xdd;" horiz-adv-x="698" 
d="M172 0v115h96v183l-187 266h-85v115h334v-115h-62l103 -166l99 166h-59v115h291v-115h-85l-177 -266v-183h96v-115h-364zM250 740l78 155h180l-180 -155h-78z" />
    <glyph glyph-name="Ydieresis" unicode="&#x178;" horiz-adv-x="698" 
d="M172 0v115h96v183l-187 266h-85v115h334v-115h-62l103 -166l99 166h-59v115h291v-115h-85l-177 -266v-183h96v-115h-364zM460 886c39 0 71 -31 71 -70s-32 -71 -71 -71s-70 32 -70 71s31 70 70 70zM238 886c39 0 71 -31 71 -70s-32 -71 -71 -71s-70 32 -70 71
s31 70 70 70z" />
    <glyph glyph-name="Zcaron" unicode="&#x17d;" horiz-adv-x="646" 
d="M50 0v115l322 449h-189v-123h-115v238h525v-102l-332 -462h223v130h115v-245h-549zM131 906h88l102 -107l109 107h85l-119 -180h-147z" />
    <glyph glyph-name="aacute" unicode="&#xe1;" horiz-adv-x="583" 
d="M570 109v-109h-229v37c-44 -31 -82 -44 -128 -44c-99 0 -173 63 -173 148c0 92 81 159 194 159c43 0 69 -8 107 -21v26c0 49 -36 83 -90 83c-35 0 -59 -11 -86 -37l-122 21c38 77 110 112 229 112c155 0 222 -55 222 -181v-194h76zM341 175c-37 24 -64 34 -87 34
c-40 0 -69 -25 -69 -59c0 -36 27 -63 62 -63c30 0 54 13 94 49v39zM192 534l78 155h180l-180 -155h-78z" />
    <glyph glyph-name="acircumflex" unicode="&#xe2;" horiz-adv-x="583" 
d="M570 109v-109h-229v37c-44 -31 -82 -44 -128 -44c-99 0 -173 63 -173 148c0 92 81 159 194 159c43 0 69 -8 107 -21v26c0 49 -36 83 -90 83c-35 0 -59 -11 -86 -37l-122 21c38 77 110 112 229 112c155 0 222 -55 222 -181v-194h76zM341 175c-37 24 -64 34 -87 34
c-40 0 -69 -25 -69 -59c0 -36 27 -63 62 -63c30 0 54 13 94 49v39zM100 520l118 180h147l119 -180h-85l-109 107l-102 -107h-88z" />
    <glyph glyph-name="adieresis" unicode="&#xe4;" horiz-adv-x="583" 
d="M570 109v-109h-229v37c-44 -31 -82 -44 -128 -44c-99 0 -173 63 -173 148c0 92 81 159 194 159c43 0 69 -8 107 -21v26c0 49 -36 83 -90 83c-35 0 -59 -11 -86 -37l-122 21c38 77 110 112 229 112c155 0 222 -55 222 -181v-194h76zM341 175c-37 24 -64 34 -87 34
c-40 0 -69 -25 -69 -59c0 -36 27 -63 62 -63c30 0 54 13 94 49v39zM402 680c39 0 71 -31 71 -70s-32 -71 -71 -71s-70 32 -70 71s31 70 70 70zM180 680c39 0 71 -31 71 -70s-32 -71 -71 -71s-70 32 -70 71s31 70 70 70z" />
    <glyph glyph-name="agrave" unicode="&#xe0;" horiz-adv-x="583" 
d="M570 109v-109h-229v37c-44 -31 -82 -44 -128 -44c-99 0 -173 63 -173 148c0 92 81 159 194 159c43 0 69 -8 107 -21v26c0 49 -36 83 -90 83c-35 0 -59 -11 -86 -37l-122 21c38 77 110 112 229 112c155 0 222 -55 222 -181v-194h76zM341 175c-37 24 -64 34 -87 34
c-40 0 -69 -25 -69 -59c0 -36 27 -63 62 -63c30 0 54 13 94 49v39zM391 534h-78l-180 155h180z" />
    <glyph glyph-name="aring" unicode="&#xe5;" horiz-adv-x="583" 
d="M570 109v-109h-229v37c-44 -31 -82 -44 -128 -44c-99 0 -173 63 -173 148c0 92 81 159 194 159c43 0 69 -8 107 -21v26c0 49 -36 83 -90 83c-35 0 -59 -11 -86 -37l-122 21c38 77 110 112 229 112c155 0 222 -55 222 -181v-194h76zM341 175c-37 24 -64 34 -87 34
c-40 0 -69 -25 -69 -59c0 -36 27 -63 62 -63c30 0 54 13 94 49v39zM291 722c57 0 104 -46 104 -103s-47 -104 -104 -104s-103 47 -103 104s46 103 103 103zM291 672c-30 0 -53 -23 -53 -53s23 -54 53 -54s54 24 54 54s-24 53 -54 53z" />
    <glyph glyph-name="atilde" unicode="&#xe3;" horiz-adv-x="583" 
d="M570 109v-109h-229v37c-44 -31 -82 -44 -128 -44c-99 0 -173 63 -173 148c0 92 81 159 194 159c43 0 69 -8 107 -21v26c0 49 -36 83 -90 83c-35 0 -59 -11 -86 -37l-122 21c38 77 110 112 229 112c155 0 222 -55 222 -181v-194h76zM341 175c-37 24 -64 34 -87 34
c-40 0 -69 -25 -69 -59c0 -36 27 -63 62 -63c30 0 54 13 94 49v39zM413 685h70c3 -93 -50 -157 -114 -157c-50 0 -119 56 -156 56c-24 0 -38 -19 -39 -53h-73c0 46 11 85 31 112c19 28 48 44 82 44c58 0 116 -57 156 -57c23 0 41 23 43 55z" />
    <glyph glyph-name="ccedilla" unicode="&#xe7;" horiz-adv-x="563" 
d="M194 -82l24 82c-115 27 -186 115 -186 237c0 140 101 243 239 243c52 0 94 -14 143 -46v39h104v-192h-104c-24 52 -64 79 -116 79c-68 0 -111 -48 -111 -122c0 -82 40 -132 107 -132c47 0 93 29 120 78l117 -52c-47 -100 -120 -143 -238 -143l-2 -7c58 -7 93 -41 93 -86
c0 -93 -91 -109 -234 -102v50c47 0 103 3 103 39c0 21 -19 32 -59 35z" />
    <glyph glyph-name="eacute" unicode="&#xe9;" horiz-adv-x="573" 
d="M416 142l120 -37c-49 -76 -129 -116 -232 -116c-164 0 -267 92 -267 239c0 148 107 256 255 256c142 0 256 -109 244 -279h-346c1 -54 30 -118 116 -118c40 0 66 13 110 55zM190 289h197c-8 60 -45 96 -100 96s-88 -31 -97 -96zM187 534l78 155h180l-180 -155h-78z" />
    <glyph glyph-name="ecircumflex" unicode="&#xea;" horiz-adv-x="573" 
d="M416 142l120 -37c-49 -76 -129 -116 -232 -116c-164 0 -267 92 -267 239c0 148 107 256 255 256c142 0 256 -109 244 -279h-346c1 -54 30 -118 116 -118c40 0 66 13 110 55zM190 289h197c-8 60 -45 96 -100 96s-88 -31 -97 -96zM95 520l118 180h147l119 -180h-85
l-109 107l-102 -107h-88z" />
    <glyph glyph-name="edieresis" unicode="&#xeb;" horiz-adv-x="573" 
d="M416 142l120 -37c-49 -76 -129 -116 -232 -116c-164 0 -267 92 -267 239c0 148 107 256 255 256c142 0 256 -109 244 -279h-346c1 -54 30 -118 116 -118c40 0 66 13 110 55zM190 289h197c-8 60 -45 96 -100 96s-88 -31 -97 -96zM397 680c39 0 71 -31 71 -70
s-32 -71 -71 -71s-70 32 -70 71s31 70 70 70zM175 680c39 0 71 -31 71 -70s-32 -71 -71 -71s-70 32 -70 71s31 70 70 70z" />
    <glyph glyph-name="egrave" unicode="&#xe8;" horiz-adv-x="573" 
d="M416 142l120 -37c-49 -76 -129 -116 -232 -116c-164 0 -267 92 -267 239c0 148 107 256 255 256c142 0 256 -109 244 -279h-346c1 -54 30 -118 116 -118c40 0 66 13 110 55zM190 289h197c-8 60 -45 96 -100 96s-88 -31 -97 -96zM386 534h-78l-180 155h180z" />
    <glyph glyph-name="iacute" unicode="&#xed;" horiz-adv-x="354" 
d="M43 364v109h222v-364h69v-109h-291v109h69v255h-69zM78 534l78 155h180l-180 -155h-78z" />
    <glyph glyph-name="icircumflex" unicode="&#xee;" horiz-adv-x="354" 
d="M43 364v109h222v-364h69v-109h-291v109h69v255h-69zM-14 520l118 180h147l119 -180h-85l-109 107l-102 -107h-88z" />
    <glyph glyph-name="idieresis" unicode="&#xef;" horiz-adv-x="354" 
d="M43 364v109h222v-364h69v-109h-291v109h69v255h-69zM288 680c39 0 71 -31 71 -70s-32 -71 -71 -71s-70 32 -70 71s31 70 70 70zM66 680c39 0 71 -31 71 -70s-32 -71 -71 -71s-70 32 -70 71s31 70 70 70z" />
    <glyph glyph-name="igrave" unicode="&#xec;" horiz-adv-x="354" 
d="M43 364v109h222v-364h69v-109h-291v109h69v255h-69zM277 534h-78l-180 155h180z" />
    <glyph glyph-name="ntilde" unicode="&#xf1;" horiz-adv-x="625" 
d="M36 364v109h226v-44c49 36 88 51 136 51c63 0 144 -34 144 -161v-210h69v-109h-222v300c0 38 -16 53 -44 53c-26 0 -55 -11 -83 -31v-213h63v-109h-289v109h73v255h-73zM434 685h70c3 -93 -50 -157 -114 -157c-50 0 -119 56 -156 56c-24 0 -38 -19 -39 -53h-73
c0 46 11 85 31 112c19 28 48 44 82 44c58 0 116 -57 156 -57c23 0 41 23 43 55z" />
    <glyph glyph-name="oacute" unicode="&#xf3;" horiz-adv-x="573" 
d="M535 237c0 -149 -101 -248 -249 -248c-140 0 -248 91 -248 248c0 166 120 247 248 247c138 0 249 -88 249 -247zM380 237c0 82 -34 130 -94 130s-93 -48 -93 -133c0 -80 35 -128 93 -128c60 0 94 48 94 131zM187 534l78 155h180l-180 -155h-78z" />
    <glyph glyph-name="ocircumflex" unicode="&#xf4;" horiz-adv-x="573" 
d="M535 237c0 -149 -101 -248 -249 -248c-140 0 -248 91 -248 248c0 166 120 247 248 247c138 0 249 -88 249 -247zM380 237c0 82 -34 130 -94 130s-93 -48 -93 -133c0 -80 35 -128 93 -128c60 0 94 48 94 131zM95 520l118 180h147l119 -180h-85l-109 107l-102 -107h-88z
" />
    <glyph glyph-name="odieresis" unicode="&#xf6;" horiz-adv-x="573" 
d="M535 237c0 -149 -101 -248 -249 -248c-140 0 -248 91 -248 248c0 166 120 247 248 247c138 0 249 -88 249 -247zM380 237c0 82 -34 130 -94 130s-93 -48 -93 -133c0 -80 35 -128 93 -128c60 0 94 48 94 131zM397 680c39 0 71 -31 71 -70s-32 -71 -71 -71s-70 32 -70 71
s31 70 70 70zM175 680c39 0 71 -31 71 -70s-32 -71 -71 -71s-70 32 -70 71s31 70 70 70z" />
    <glyph glyph-name="ograve" unicode="&#xf2;" horiz-adv-x="573" 
d="M535 237c0 -149 -101 -248 -249 -248c-140 0 -248 91 -248 248c0 166 120 247 248 247c138 0 249 -88 249 -247zM380 237c0 82 -34 130 -94 130s-93 -48 -93 -133c0 -80 35 -128 93 -128c60 0 94 48 94 131zM386 534h-78l-180 155h180z" />
    <glyph glyph-name="otilde" unicode="&#xf5;" horiz-adv-x="573" 
d="M535 237c0 -149 -101 -248 -249 -248c-140 0 -248 91 -248 248c0 166 120 247 248 247c138 0 249 -88 249 -247zM380 237c0 82 -34 130 -94 130s-93 -48 -93 -133c0 -80 35 -128 93 -128c60 0 94 48 94 131zM408 685h70c3 -93 -50 -157 -114 -157c-50 0 -119 56 -156 56
c-24 0 -38 -19 -39 -53h-73c0 46 11 85 31 112c19 28 48 44 82 44c58 0 116 -57 156 -57c23 0 41 23 43 55z" />
    <glyph glyph-name="scaron" unicode="&#x161;" horiz-adv-x="510" 
d="M58 0v163h110c1 -22 8 -36 30 -53c19 -14 44 -20 75 -20c46 0 77 18 77 46c0 69 -179 23 -275 119c-20 20 -35 51 -35 86c0 81 73 139 175 139c43 0 83 -8 119 -23v16h108v-137h-108c-9 33 -43 49 -103 49c-40 0 -65 -15 -65 -36c0 -66 308 -3 308 -199
c0 -92 -64 -159 -186 -159c-68 0 -98 12 -120 33v-24h-110zM63 700h88l102 -107l109 107h85l-119 -180h-147z" />
    <glyph glyph-name="uacute" unicode="&#xfa;" horiz-adv-x="625" 
d="M589 109v-109h-226v40c-46 -32 -90 -47 -135 -47c-90 0 -145 56 -145 147v224h-69v109h222v-295c0 -46 11 -61 46 -61c24 0 51 12 81 34v213h-63v109h216v-364h73zM213 534l78 155h180l-180 -155h-78z" />
    <glyph glyph-name="ucircumflex" unicode="&#xfb;" horiz-adv-x="625" 
d="M589 109v-109h-226v40c-46 -32 -90 -47 -135 -47c-90 0 -145 56 -145 147v224h-69v109h222v-295c0 -46 11 -61 46 -61c24 0 51 12 81 34v213h-63v109h216v-364h73zM121 520l118 180h147l119 -180h-85l-109 107l-102 -107h-88z" />
    <glyph glyph-name="udieresis" unicode="&#xfc;" horiz-adv-x="625" 
d="M589 109v-109h-226v40c-46 -32 -90 -47 -135 -47c-90 0 -145 56 -145 147v224h-69v109h222v-295c0 -46 11 -61 46 -61c24 0 51 12 81 34v213h-63v109h216v-364h73zM423 680c39 0 71 -31 71 -70s-32 -71 -71 -71s-70 32 -70 71s31 70 70 70zM201 680c39 0 71 -31 71 -70
s-32 -71 -71 -71s-70 32 -70 71s31 70 70 70z" />
    <glyph glyph-name="ugrave" unicode="&#xf9;" horiz-adv-x="625" 
d="M589 109v-109h-226v40c-46 -32 -90 -47 -135 -47c-90 0 -145 56 -145 147v224h-69v109h222v-295c0 -46 11 -61 46 -61c24 0 51 12 81 34v213h-63v109h216v-364h73zM412 534h-78l-180 155h180z" />
    <glyph glyph-name="yacute" unicode="&#xfd;" horiz-adv-x="594" 
d="M123 -212v109h90l31 84l-171 383h-69v109h274v-109h-46l79 -212l84 212h-51v109h240v-109h-69l-227 -576h-165zM198 534l78 155h180l-180 -155h-78z" />
    <glyph glyph-name="ydieresis" unicode="&#xff;" horiz-adv-x="594" 
d="M123 -212v109h90l31 84l-171 383h-69v109h274v-109h-46l79 -212l84 212h-51v109h240v-109h-69l-227 -576h-165zM408 680c39 0 71 -31 71 -70s-32 -71 -71 -71s-70 32 -70 71s31 70 70 70zM186 680c39 0 71 -31 71 -70s-32 -71 -71 -71s-70 32 -70 71s31 70 70 70z" />
    <glyph glyph-name="zcaron" unicode="&#x17e;" horiz-adv-x="531" 
d="M35 0v96l278 279h-152v-71h-103v169h435v-98l-277 -279h178v80h99v-176h-458zM73 700h88l102 -107l109 107h85l-119 -180h-147z" />
    <glyph glyph-name="one.superior" 
d="M64 332v62h57v229h-57v62h157v-291h52v-62h-209z" />
    <glyph glyph-name="two.superior" 
d="M295 441v-109h-269v18c0 151 163 166 163 246c0 20 -13 34 -32 34c-28 0 -40 -21 -42 -73l-89 7c-2 85 51 127 136 127c78 0 131 -40 131 -99c0 -104 -155 -104 -178 -198h104v47h76z" />
    <glyph glyph-name="three.superior" 
d="M22 444l89 6c1 -40 17 -61 48 -61c27 0 46 20 46 49c0 31 -19 48 -52 48h-23v64c45 0 66 14 66 43c0 22 -15 36 -37 36c-25 0 -38 -16 -37 -44h-87c1 33 17 60 27 70c26 24 53 36 104 36c78 0 128 -37 128 -94c0 -36 -18 -61 -55 -79c47 -15 70 -43 70 -83
c0 -64 -57 -107 -144 -107c-88 0 -135 39 -143 116z" />
    <glyph glyph-name="a.superior" horiz-adv-x="396" 
d="M385 464v-65h-147v22c-29 -18 -54 -26 -84 -26c-64 0 -112 37 -112 88c0 56 52 96 125 96c22 0 49 -6 71 -15v18c0 28 -24 49 -59 49c-22 0 -39 -6 -56 -22l-79 13c25 48 71 69 150 69c110 0 142 -50 142 -107v-120h49zM238 503c-23 14 -42 21 -57 21
c-26 0 -44 -15 -44 -35c0 -22 17 -38 40 -38c19 0 35 8 61 29v23z" />
    <glyph glyph-name="Omega" unicode="&#x2126;" horiz-adv-x="699" 
d="M169 104v3c-59 54 -119 145 -119 268c0 168 121 310 302 310c192 0 295 -162 295 -304c0 -124 -60 -220 -121 -274v-3h135v-104h-264v77c61 39 118 124 118 277c0 118 -57 224 -164 224c-102 0 -169 -97 -169 -229c0 -139 56 -235 118 -272v-77h-264v104h133z" />
    <glyph glyph-name="uni03BC" unicode="&#x3bc;" horiz-adv-x="615" 
d="M73 473h136v-201c0 -104 18 -174 97 -174c54 0 100 46 100 145v230h139v-473h-128v63h-2c-21 -51 -65 -74 -103 -74c-45 0 -77 19 -101 75h-2v-276h-136v685z" />
    <glyph glyph-name="pi" unicode="&#x3c0;" horiz-adv-x="595" 
d="M572 398h-68v-253c0 -70 6 -114 13 -145h-127c-11 21 -17 71 -17 139v259h-131c-4 -104 -28 -299 -62 -398h-127c33 112 59 294 61 398c-46 0 -74 -3 -96 -10l-14 86c24 20 77 33 163 33h416z" />
    <glyph glyph-name="Euro" unicode="&#x20ac;" horiz-adv-x="552" 
d="M512 184c-33 -170 -132 -193 -226 -193c-151 0 -208 119 -226 241h-58v78h51v30v32h-51v78h59c25 146 101 241 217 241c56 0 88 -15 128 -55v43h88v-197h-86c-11 30 -16 48 -35 70c-19 21 -37 29 -71 29c-62 0 -83 -52 -91 -131h139v-78h-142v-34v-28h142v-78h-138
c8 -78 29 -131 84 -131c68 0 94 41 104 109z" />
    <glyph glyph-name="afii61289" unicode="&#x2113;" horiz-adv-x="511" 
d="M439 186l53 -54c-53 -102 -130 -138 -208 -138c-117 0 -167 71 -178 156c-1 4 -1 7 -1 10c-16 -11 -33 -26 -50 -38l-33 68c29 24 57 44 81 67v239c0 173 80 249 179 249c97 0 140 -78 140 -174c0 -114 -74 -221 -193 -333v-40c2 -66 38 -100 85 -100c53 0 98 44 125 88z
M229 500v-145c65 74 111 155 111 221c0 48 -14 77 -52 77c-28 0 -59 -33 -59 -153z" />
    <glyph glyph-name="estimated" unicode="&#x212e;" horiz-adv-x="844" 
d="M810 331h-629c-3 0 -5 -1 -5 -4v-190c0 -9 3 -16 8 -22c61 -63 145 -104 238 -104c100 0 189 46 251 116h55c-69 -82 -182 -135 -307 -135c-214 0 -388 156 -388 349s174 349 388 349c215 0 389 -156 389 -349v-10zM667 356v192c0 8 -3 16 -9 22
c-61 60 -144 100 -236 100s-176 -41 -237 -103c-6 -6 -9 -14 -9 -24v-187c0 -2 2 -6 5 -6h482c3 0 4 4 4 6z" />
    <glyph glyph-name="partialdiff" unicode="&#x2202;" horiz-adv-x="568" 
d="M101 613l-36 95c30 23 89 57 182 57c147 0 274 -126 274 -369c0 -240 -103 -401 -279 -401c-140 0 -206 127 -206 230c0 155 94 253 213 253c80 0 129 -52 144 -77h1c1 8 1 24 1 31c0 118 -64 227 -165 227c-60 0 -103 -26 -129 -46zM255 102h1c72 0 116 105 126 194
c-9 29 -47 79 -107 79c-65 0 -111 -73 -111 -154c0 -66 36 -119 91 -119z" />
    <glyph glyph-name="product" unicode="&#x220f;" horiz-adv-x="711" 
d="M687 558h-100v-651h-128v651h-208v-651h-128v651h-100v116h664v-116z" />
    <glyph glyph-name="summation" unicode="&#x2211;" horiz-adv-x="550" 
d="M532 -93h-510v82l235 302l-226 294v89h485v-109h-311v-3l198 -251l-220 -282v-4h349v-118z" />
    <glyph glyph-name="uni2219" unicode="&#x2219;" horiz-adv-x="365" 
d="M100 479h164v-164h-164v164z" />
    <glyph glyph-name="radical" unicode="&#x221a;" horiz-adv-x="585" 
d="M595 809l-222 -944h-103l-146 420l-72 -28l-21 71l170 69l100 -304c7 -31 15 -62 20 -85l2 -1c3 22 9 57 15 92l167 710h90z" />
    <glyph glyph-name="infinity" unicode="&#x221e;" horiz-adv-x="759" 
d="M712 279v-1c0 -107 -77 -170 -157 -170c-56 0 -110 24 -175 110c-50 -62 -101 -110 -179 -110c-81 0 -155 67 -155 165c0 99 70 168 163 168c72 0 125 -42 175 -107c40 45 89 108 176 107c86 0 152 -64 152 -162zM209 178h2c54 0 94 48 131 92c-40 54 -73 103 -136 103
c-54 0 -88 -42 -88 -101c0 -51 39 -94 91 -94zM553 373h-1c-59 0 -102 -61 -133 -96c59 -74 90 -99 138 -99c54 0 83 52 83 95c0 58 -34 100 -87 100z" />
    <glyph glyph-name="integral" unicode="&#x222b;" horiz-adv-x="389" 
d="M368 824l-13 -88c-9 4 -21 8 -35 8c-19 0 -37 -7 -49 -25c-20 -26 -26 -81 -26 -161c0 -157 15 -286 15 -461c0 -91 -14 -154 -35 -193c-28 -52 -80 -72 -129 -72c-31 0 -62 8 -77 16l16 91c9 -4 24 -10 43 -10c15 0 32 5 42 19c17 23 27 63 27 148
c0 178 -15 309 -15 475c0 113 17 175 59 219c29 31 74 45 117 45c25 0 49 -6 60 -11z" />
    <glyph glyph-name="approxequal" unicode="&#x2248;" horiz-adv-x="539" 
d="M455 440l46 -43c-32 -59 -79 -100 -134 -100c-40 0 -66 12 -110 38c-28 18 -52 33 -84 33c-43 0 -67 -35 -91 -70l-46 43c29 56 83 99 143 99c47 0 78 -20 103 -35c36 -21 56 -35 85 -35c38 0 62 28 88 70zM455 256l46 -42c-32 -59 -78 -100 -135 -100
c-39 0 -66 13 -109 38c-29 19 -52 33 -83 33c-44 0 -68 -35 -92 -70l-46 42c29 57 83 100 143 100c48 0 78 -20 103 -34c31 -18 53 -36 85 -36c38 0 61 27 88 69z" />
    <glyph glyph-name="notequal" unicode="&#x2260;" horiz-adv-x="539" 
d="M397 498l-37 -85h132v-74h-160l-57 -131h217v-74h-246l-48 -110l-59 24l39 86h-131v74h159l57 131h-216v74h244l48 109z" />
    <glyph glyph-name="lessequal" unicode="&#x2264;" horiz-adv-x="539" 
d="M489 97l-437 216v80l437 217v-86l-364 -169v-2l364 -170v-86zM493 -14h-445v75h445v-75z" />
    <glyph glyph-name="greaterequal" unicode="&#x2265;" horiz-adv-x="539" 
d="M53 610l438 -217v-80l-437 -216v86l363 170v2l-364 169v86zM491 -14h-442v75h442v-75z" />
    <glyph glyph-name="lozenge" unicode="&#x25ca;" horiz-adv-x="584" 
d="M536 337l-195 -385h-103l-190 385l195 385h103zM422 334l-110 227c-7 18 -14 41 -18 57h-3c-5 -17 -11 -38 -19 -57l-110 -222l111 -231c7 -18 14 -41 16 -54h5c3 14 12 42 16 53z" />
    <glyph glyph-name="uni00A0" unicode="&#xa0;" horiz-adv-x="250" 
 />
    <glyph glyph-name="uni00AD" unicode="&#xad;" horiz-adv-x="344" 
d="M35 170v132h273v-132h-273z" />
    <glyph glyph-name="uni02C9" unicode="&#x2c9;" 
d="M-60 542v102h454v-102h-454z" />
    <glyph glyph-name="uni2215" unicode="&#x2215;" 
d="M-123 0l492 679h87l-492 -679h-87z" />
    <glyph glyph-name="uni03A9" unicode="&#x3a9;" horiz-adv-x="699" 
d="M169 104v3c-59 54 -119 145 -119 268c0 168 121 310 302 310c192 0 295 -162 295 -304c0 -124 -60 -220 -121 -274v-3h135v-104h-264v77c61 39 118 124 118 277c0 118 -57 224 -164 224c-102 0 -169 -97 -169 -229c0 -139 56 -235 118 -272v-77h-264v104h133z" />
    <glyph glyph-name="o.superior" horiz-adv-x="375" 
d="M188 393c-97 0 -162 60 -162 149s65 149 162 149s161 -60 161 -149s-64 -149 -161 -149zM187 463c39 0 61 29 61 79c0 49 -22 78 -60 78s-61 -29 -61 -79c0 -49 23 -78 60 -78z" />
    <glyph glyph-name="uni2206" unicode="&#x2206;" horiz-adv-x="648" 
d="M25 0v74l224 615h155l217 -613v-76h-596zM160 104h321l-104 276c-15 52 -44 130 -54 172h-3c-8 -33 -35 -104 -50 -157z" />
    <glyph glyph-name="fi" unicode="&#xfb01;" horiz-adv-x="625" 
d="M257 364v-255h46v-109h-272v109h73v255h-73v109h73v40c0 102 85 178 224 178c89 0 179 -16 210 -121l-149 -16c-11 30 -44 38 -66 38c-37 0 -66 -13 -66 -68v-51h279v-364h73v-109h-271v109h45v255h-126z" />
    <glyph glyph-name="fl" unicode="&#xfb02;" horiz-adv-x="625" 
d="M418 679h118v-570h73v-109h-271v109h45v441c-5 30 -36 42 -59 42c-38 0 -67 -13 -67 -68v-51h68v-109h-68v-255h46v-109h-272v109h73v255h-73v109h73v40c0 86 65 178 229 178c35 0 63 -4 85 -12z" />
    <glyph glyph-name="onesuperior" unicode="&#xb9;" 
d="M64 332v62h57v229h-57v62h157v-291h52v-62h-209z" />
    <glyph glyph-name="threesuperior" unicode="&#xb3;" 
d="M22 444l89 6c1 -40 17 -61 48 -61c27 0 46 20 46 49c0 31 -19 48 -52 48h-23v64c45 0 66 14 66 43c0 22 -15 36 -37 36c-25 0 -38 -16 -37 -44h-87c1 33 17 60 27 70c26 24 53 36 104 36c78 0 128 -37 128 -94c0 -36 -18 -61 -55 -79c47 -15 70 -43 70 -83
c0 -64 -57 -107 -144 -107c-88 0 -135 39 -143 116z" />
    <glyph glyph-name="twosuperior" unicode="&#xb2;" 
d="M295 441v-109h-269v18c0 151 163 166 163 246c0 20 -13 34 -32 34c-28 0 -40 -21 -42 -73l-89 7c-2 85 51 127 136 127c78 0 131 -40 131 -99c0 -104 -155 -104 -178 -198h104v47h76z" />
    <glyph glyph-name="uni2010" unicode="&#x2010;" horiz-adv-x="344" 
d="M35 170v132h273v-132h-273z" />
    </font>
</defs>
</svg>
