<?xml version="1.0" standalone="no"?>
<!DOCTYPE svg PUBLIC "-//W3C//DTD SVG 1.1//EN" "http://www.w3.org/Graphics/SVG/1.1/DTD/svg11.dtd" >
<svg>
<metadata>
Created by FontForge 20110222 at Sat Oct 22 19:49:14 2011
 By System Administrator
 (C) Copyright 1989, 1990, 2002 The Monotype Corporation Plc. All Rights Reserved. 
</metadata>
<defs>
<font id="RockwellStd" horiz-adv-x="573" >
  <font-face 
    font-family="Rockwell Std"
    font-weight="400"
    font-stretch="normal"
    units-per-em="1000"
    panose-1="2 6 6 3 3 4 5 2 1 3"
    ascent="679"
    descent="-321"
    x-height="472"
    cap-height="679"
    bbox="-148 -223 1054 917"
    underline-thickness="50"
    underline-position="-50"
    stemh="82"
    stemv="94"
    unicode-range="U+0020-FB02"
  />
<missing-glyph horiz-adv-x="500" 
d="M0 0v700h500v-700h-500zM250 395l170 255h-340zM280 350l170 -255v510zM80 50h340l-170 255zM50 605v-510l170 255z" />
    <glyph glyph-name="f_i" unicode="fi" 
d="M390 390h-191v-308h75v-82h-244v82h75v308h-75v82h75v85c0 94 59 136 126 136s111 -39 122 -109l-82 -13c-3 31 -15 46 -36 46c-23 0 -36 -19 -36 -51v-94h285v-390h75v-82h-244v82h75v308zM438 689c31 0 56 -25 56 -56s-25 -56 -56 -56s-56 25 -56 56s25 56 56 56z" />
    <glyph glyph-name="f_l" unicode="fl" 
d="M199 472h80v-82h-80v-308h75v-82h-244v82h75v308h-75v82h75v85c0 94 60 136 126 136c26 0 49 -7 59 -14h194v-597h75v-82h-244v82h75v515l-118 -11c-6 21 -16 31 -37 31c-23 0 -36 -19 -36 -51v-94z" />
    <glyph glyph-name=".notdef" horiz-adv-x="500" 
d="M0 0v700h500v-700h-500zM250 395l170 255h-340zM280 350l170 -255v510zM80 50h340l-170 255zM50 605v-510l170 255z" />
    <glyph glyph-name="space" unicode=" " horiz-adv-x="250" 
 />
    <glyph glyph-name="exclam" unicode="!" horiz-adv-x="292" 
d="M121 184l-24 288v207h98v-207l-24 -288h-50zM86 0v120h120v-120h-120z" />
    <glyph glyph-name="quotedbl" unicode="&#x22;" horiz-adv-x="406" 
d="M76 424l-14 138v117h80v-117l-14 -138h-52zM278 424l-14 138v117h80v-117l-14 -138h-52z" />
    <glyph glyph-name="numbersign" unicode="#" horiz-adv-x="668" 
d="M42 495h156l40 195h72l-40 -195h194l40 195h72l-40 -195h90v-68h-106l-34 -172h140v-68h-155l-41 -195h-71l40 195h-194l-41 -195h-71l40 195h-91v68h106l35 172h-141v68zM254 427l-35 -172h195l35 172h-195z" />
    <glyph glyph-name="dollar" unicode="$" horiz-adv-x="542" 
d="M229 -86v76c-108 7 -202 73 -199 215h89c6 -84 38 -124 110 -136v225c-125 25 -186 86 -186 188c0 110 68 181 186 192v41h74v-41c107 -11 175 -80 164 -215h-85c0 80 -20 121 -79 134v-217c122 -23 196 -67 196 -184c0 -116 -71 -189 -196 -202v-76h-74zM229 392v205
c-55 -10 -87 -46 -87 -101s25 -84 87 -104zM303 278v-208c71 13 105 48 105 109c0 57 -28 83 -105 99z" />
    <glyph glyph-name="percent" unicode="%" horiz-adv-x="969" 
d="M617 161c0 108 55 177 142 177c86 0 142 -69 142 -177c0 -107 -56 -176 -142 -176c-87 0 -142 69 -142 176zM696 161c0 -78 20 -115 63 -115c42 0 63 37 63 115s-21 115 -63 115c-43 0 -63 -37 -63 -115zM68 512c0 108 55 177 142 177c86 0 142 -69 142 -177
c0 -107 -56 -176 -142 -176c-87 0 -142 69 -142 176zM147 512c0 -78 20 -115 63 -115c42 0 63 37 63 115s-21 115 -63 115c-43 0 -63 -37 -63 -115zM180 0l539 679h69l-535 -679h-73z" />
    <glyph glyph-name="ampersand" unicode="&#x26;" horiz-adv-x="677" 
d="M515 359h139v-83h-72c-17 -63 -40 -111 -67 -145l36 -46h103v-85h-155l-45 60c-62 -49 -118 -71 -180 -71c-139 0 -243 98 -243 229c0 90 52 158 154 204c-31 41 -46 78 -46 118c0 84 72 150 165 150c91 0 162 -63 162 -145c0 -66 -37 -116 -142 -155l138 -187
c24 42 43 96 53 156zM402 128l-165 231c-68 -31 -102 -76 -102 -136c0 -81 68 -149 150 -149c42 0 83 19 117 54zM275 454c73 32 99 56 99 93c0 40 -29 61 -69 61c-42 0 -71 -23 -71 -65c0 -21 11 -45 41 -89z" />
    <glyph glyph-name="quoteright" unicode="&#x2019;" horiz-adv-x="292" 
d="M86 559v120h120v-120c0 -87 -31 -134 -120 -135v50c43 10 60 30 60 85h-60z" />
    <glyph glyph-name="parenleft" unicode="(" horiz-adv-x="375" 
d="M180 237c0 -216 55 -306 167 -379v-76c-159 76 -266 228 -266 455s107 379 266 455v-76c-112 -73 -167 -163 -167 -379z" />
    <glyph glyph-name="parenright" unicode=")" horiz-adv-x="375" 
d="M195 237c0 216 -55 306 -167 379v76c159 -76 266 -228 266 -455s-107 -379 -266 -455v76c112 73 167 163 167 379z" />
    <glyph glyph-name="asterisk" unicode="*" horiz-adv-x="521" 
d="M113 466l-79 27l26 86l82 -26c17 -21 52 -47 105 -66c-3 44 -17 92 -31 120v83h88v-83c-14 -28 -28 -76 -31 -120c53 19 88 45 105 66l82 26l26 -86l-79 -27c-29 7 -61 6 -120 -8c38 -45 67 -68 91 -77l50 -69l-73 -52l-51 69c-2 30 -21 85 -44 113
c-23 -28 -42 -83 -44 -113l-51 -69l-73 52l50 69c24 9 53 32 91 77c-59 14 -91 15 -120 8z" />
    <glyph glyph-name="plus" unicode="+" horiz-adv-x="667" 
d="M295 288h-229v77h229v229h77v-229h229v-77h-229v-229h-77v229z" />
    <glyph glyph-name="comma" unicode="," horiz-adv-x="292" 
d="M86 0v120h120v-120c0 -87 -31 -134 -120 -135v50c43 10 60 30 60 85h-60z" />
    <glyph glyph-name="hyphen" unicode="-" horiz-adv-x="354" 
d="M31 275h293v-82h-293v82z" />
    <glyph glyph-name="period" unicode="." horiz-adv-x="292" 
d="M86 0v120h120v-120h-120z" />
    <glyph glyph-name="slash" unicode="/" horiz-adv-x="438" 
d="M352 679h81l-347 -693h-81z" />
    <glyph glyph-name="zero" unicode="0" horiz-adv-x="542" 
d="M35 340c0 220 87 350 236 350c148 0 235 -130 235 -350c0 -221 -87 -351 -235 -351c-149 0 -236 130 -236 351zM270 611c-97 0 -138 -99 -138 -271c0 -176 41 -272 138 -272c85 0 139 71 139 272c0 198 -52 271 -139 271z" />
    <glyph glyph-name="one" unicode="1" horiz-adv-x="542" 
d="M237 82v515h-93v82h187v-597h87v-82h-274v82h93z" />
    <glyph glyph-name="two" unicode="2" horiz-adv-x="542" 
d="M480 243l-6 -243h-434c0 92 32 185 112 265c105 105 222 136 222 239c0 65 -44 107 -110 107c-94 0 -117 -55 -117 -185h-90c-15 184 82 264 206 264c158 0 211 -104 211 -184c0 -49 -16 -95 -62 -141c-91 -91 -249 -148 -274 -278h255l5 156h82z" />
    <glyph glyph-name="three" unicode="3" horiz-adv-x="542" 
d="M203 313v84h41c83 0 132 29 132 103c0 67 -42 111 -106 111c-78 0 -113 -53 -113 -137h-94c-6 133 73 216 197 216c122 0 208 -60 208 -178c0 -68 -38 -128 -96 -154c86 -27 127 -80 127 -164c0 -124 -93 -205 -235 -205c-132 0 -236 72 -232 241h89
c4 -103 58 -162 150 -162c78 0 131 48 131 120c0 81 -69 125 -156 125h-43z" />
    <glyph glyph-name="four" unicode="4" horiz-adv-x="542" 
d="M300 182h-227c-8 30 -23 56 -44 77l282 426h79v-421h109v-82h-109v-100h62v-82h-223v82h71v100zM300 264v268h-2l-175 -268h177z" />
    <glyph glyph-name="five" unicode="5" horiz-adv-x="542" 
d="M35 217h88c12 -95 63 -149 142 -149c81 0 136 60 136 149c0 87 -50 143 -126 143c-54 0 -99 -26 -137 -81c-22 22 -42 36 -71 50l29 350h362v-181h-84v94h-208l-15 -200c20 17 42 29 65 38c23 8 48 12 73 12c124 0 209 -91 209 -224c0 -125 -76 -229 -233 -229
c-139 0 -220 80 -230 228z" />
    <glyph glyph-name="six" unicode="6" horiz-adv-x="542" 
d="M482 479h-83c-11 81 -58 132 -122 132c-99 0 -138 -122 -138 -254c43 48 102 76 159 76c110 0 189 -89 189 -212c0 -136 -84 -232 -204 -232c-147 0 -234 129 -234 347c0 223 89 354 239 354c115 0 190 -81 194 -211zM143 255c15 -126 58 -184 135 -184
c72 0 122 59 122 143c0 78 -44 129 -113 129c-50 0 -94 -27 -144 -88z" />
    <glyph glyph-name="seven" unicode="7" horiz-adv-x="542" 
d="M109 0v82h90c10 175 82 363 177 510h-233v-92h-84v179h424v-66c-98 -136 -185 -364 -185 -531h79v-82h-268z" />
    <glyph glyph-name="eight" unicode="8" horiz-adv-x="542" 
d="M154 355c-68 40 -100 91 -100 157c0 107 85 178 214 178c134 0 219 -69 219 -178c0 -66 -32 -117 -99 -157c79 -31 120 -89 120 -168c0 -121 -91 -198 -232 -198c-173 0 -243 92 -243 198c0 79 42 137 121 168zM271 393c77 0 124 42 124 110s-45 106 -127 106
c-76 0 -122 -40 -122 -107s48 -109 125 -109zM271 68c82 0 137 50 137 123c0 76 -54 123 -141 123c-80 0 -134 -49 -134 -123s56 -123 138 -123z" />
    <glyph glyph-name="nine" unicode="9" horiz-adv-x="542" 
d="M51 201h83c11 -81 58 -133 122 -133c71 0 138 69 138 255c-43 -48 -102 -76 -159 -76c-109 0 -189 89 -189 211c0 136 85 232 205 232c147 0 233 -128 233 -346c0 -223 -89 -355 -239 -355c-115 0 -190 82 -194 212zM390 425c-15 125 -58 183 -135 183
c-72 0 -122 -59 -122 -143c0 -77 45 -128 113 -128c50 0 94 27 144 88z" />
    <glyph glyph-name="colon" unicode=":" horiz-adv-x="292" 
d="M86 352v120h120v-120h-120zM86 0v120h120v-120h-120z" />
    <glyph glyph-name="semicolon" unicode=";" horiz-adv-x="292" 
d="M86 0v120h120v-120c0 -87 -31 -134 -120 -135v50c43 10 60 30 60 85h-60zM86 352v120h120v-120h-120z" />
    <glyph glyph-name="less" unicode="&#x3c;" horiz-adv-x="667" 
d="M170 326l431 -176v-83l-535 224v70l535 225v-84z" />
    <glyph glyph-name="equal" unicode="=" horiz-adv-x="667" 
d="M66 481h535v-77h-535v77zM66 250h535v-77h-535v77z" />
    <glyph glyph-name="greater" unicode="&#x3e;" horiz-adv-x="667" 
d="M497 326l-431 176v83l535 -224v-70l-535 -224v83z" />
    <glyph glyph-name="question" unicode="?" horiz-adv-x="469" 
d="M235 183h-50l-12 212l7 3c81 -14 160 14 160 105c0 66 -42 108 -108 108c-75 0 -117 -46 -111 -139h-92c-15 171 113 218 200 218c128 0 207 -74 207 -192c0 -91 -58 -187 -189 -183zM149 0v120h120v-120h-120z" />
    <glyph glyph-name="at" unicode="@" horiz-adv-x="1010" 
d="M891 9h91c-88 -134 -217 -219 -434 -219c-336 0 -494 191 -494 439c0 199 120 501 484 501c259 0 417 -178 417 -382c0 -172 -134 -350 -295 -350c-57 0 -93 25 -93 81c-44 -51 -98 -80 -149 -80c-101 0 -178 94 -178 219c0 158 125 311 254 311c60 0 112 -32 147 -90
l17 76h88l-85 -393c-5 -24 14 -42 33 -42c44 0 189 89 189 270c0 176 -149 307 -349 307c-235 0 -408 -178 -408 -421c0 -224 140 -374 421 -374c154 0 275 52 344 147zM332 210c0 -79 45 -139 105 -139c90 0 176 120 176 246c0 84 -45 140 -112 140
c-117 0 -169 -169 -169 -247z" />
    <glyph glyph-name="A" unicode="A" horiz-adv-x="698" 
d="M474 239h-244l-53 -154h83v-85h-268v85h82l186 518h-80v76h347v-76h-80l183 -518h76v-85h-266v85h84zM448 318l-90 285h-9l-94 -285h193z" />
    <glyph glyph-name="B" unicode="B" horiz-adv-x="583" 
d="M106 85v509h-83v85h275c151 0 208 -87 208 -175c0 -66 -31 -118 -84 -144c75 -26 118 -87 118 -167c0 -78 -44 -193 -251 -193h-266v85h83zM208 396h76c92 0 118 48 118 101c0 67 -40 97 -130 97h-64v-198zM208 85h80c106 0 147 41 147 115c0 56 -29 111 -145 111h-82
v-226z" />
    <glyph glyph-name="C" unicode="C" horiz-adv-x="760" 
d="M623 276l89 -49c-40 -148 -165 -238 -329 -238c-201 0 -340 144 -340 350c0 211 134 351 338 351c86 0 165 -26 224 -73v62h88v-218h-88c-39 86 -123 139 -219 139c-135 0 -231 -108 -231 -258c0 -148 101 -261 235 -261c92 0 199 61 233 195z" />
    <glyph glyph-name="D" unicode="D" horiz-adv-x="729" 
d="M105 594h-92v85h319c263 0 346 -170 346 -333c0 -219 -111 -346 -355 -346h-310v85h92v509zM207 594v-509h120c188 0 247 115 247 258c0 145 -72 251 -245 251h-122z" />
    <glyph glyph-name="E" unicode="E" horiz-adv-x="625" 
d="M116 85v509h-88v85h563v-204h-84v119h-289v-202h252v-85h-252v-222h289v124h84v-209h-563v85h88z" />
    <glyph glyph-name="F" unicode="F" horiz-adv-x="552" 
d="M104 85v509h-86v85h527v-204h-84v119h-255v-201h220v-85h-220v-223h88v-85h-276v85h86z" />
    <glyph glyph-name="G" unicode="G" horiz-adv-x="802" 
d="M505 328h248c6 -248 -168 -340 -345 -340c-289 0 -361 221 -361 354c0 158 95 348 343 348c97 0 167 -26 238 -86v75h87v-223h-87c-39 86 -130 144 -229 144c-142 0 -240 -106 -240 -259c0 -152 105 -262 250 -262c113 0 203 68 219 164h-123v85z" />
    <glyph glyph-name="H" unicode="H" horiz-adv-x="708" 
d="M104 85v509h-77v85h259v-85h-80v-194h297v194h-80v85h259v-85h-77v-509h77v-85h-259v85h80v230h-297v-230h80v-85h-259v85h77z" />
    <glyph glyph-name="I" unicode="I" horiz-adv-x="313" 
d="M105 85v509h-74v85h250v-85h-74v-509h74v-85h-250v85h74z" />
    <glyph glyph-name="J" unicode="J" horiz-adv-x="313" 
d="M-35 -202v95c26 -6 50 -9 74 -9c50 0 72 28 72 86v624h-87v85h276v-85h-87v-644c0 -133 -105 -163 -169 -163c-28 0 -55 4 -79 11z" />
    <glyph glyph-name="K" unicode="K" horiz-adv-x="625" 
d="M103 85v509h-85v85h275v-85h-88v-509h78v-85h-265v85h85zM210 359l217 235h-78v85h266v-85h-72l-208 -235l214 -274h73v-85h-276v85h73z" />
    <glyph glyph-name="L" unicode="L" horiz-adv-x="521" 
d="M104 85v509h-90v85h278v-85h-86v-509h212v231h94v-316h-498v85h90z" />
    <glyph glyph-name="M" unicode="M" horiz-adv-x="875" 
d="M107 85v509h-83v85h234l177 -465l179 465h237v-85h-82v-509h82v-85h-249v85h73v510h-2l-231 -602h-20l-229 601h-2v-509h73v-85h-240v85h83z" />
    <glyph glyph-name="N" unicode="N" horiz-adv-x="719" 
d="M101 85v509h-97v85h232l294 -528h2v443h-95v85h279v-85h-100v-601h-107l-322 580h-2v-488h98v-85h-279v85h97z" />
    <glyph glyph-name="O" unicode="O" horiz-adv-x="802" 
d="M50 339c0 205 147 351 351 351s351 -147 351 -351s-147 -350 -351 -350c-205 0 -351 145 -351 350zM162 339c0 -146 104 -260 239 -260s239 114 239 260c0 147 -104 261 -239 261s-239 -114 -239 -261z" />
    <glyph glyph-name="P" unicode="P" 
d="M105 85v509h-85v85h301c188 0 227 -124 227 -210c0 -69 -28 -122 -57 -151c-47 -47 -111 -58 -208 -58h-76v-175h89v-85h-276v85h85zM207 342h85c125 0 152 58 152 128c0 80 -45 124 -120 124h-117v-252z" />
    <glyph glyph-name="Q" unicode="Q" horiz-adv-x="802" 
d="M447 -7v-1c66 -29 135 -51 179 -36l-36 -84c-98 -22 -181 73 -276 73c-28 0 -50 -7 -69 -24l-30 42c23 23 40 33 76 40v2c-151 44 -241 182 -241 337c0 203 146 348 349 348c206 0 353 -145 353 -349c0 -221 -171 -342 -305 -348zM162 341c0 -151 101 -263 237 -263
s241 115 241 263s-105 259 -243 259s-235 -108 -235 -259z" />
    <glyph glyph-name="R" unicode="R" horiz-adv-x="604" 
d="M106 85v509h-93v85h314c153 0 216 -74 216 -177c0 -87 -49 -147 -140 -170l120 -247h83v-85h-147l-154 318h-97v-233h88v-85h-283v85h93zM208 403h115c96 0 116 54 116 99c0 60 -42 92 -107 92h-124v-191z" />
    <glyph glyph-name="S" unicode="S" horiz-adv-x="531" 
d="M34 0v246h84v-60c43 -73 93 -112 158 -112c69 0 120 49 120 114c0 133 -213 87 -319 193c-26 26 -45 66 -45 123c0 126 96 186 198 186c54 0 106 -18 152 -53v45h84v-205h-84v47c-37 54 -82 79 -144 79c-69 0 -114 -35 -114 -87c0 -23 9 -44 23 -58
c53 -53 216 -44 295 -123c36 -36 58 -91 58 -146c0 -115 -92 -200 -215 -200c-62 0 -118 22 -167 67v-56h-84z" />
    <glyph glyph-name="T" unicode="T" 
d="M561 679v-258h-84v173h-140v-509h89v-85h-280v85h89v509h-140v-173h-84v258h550z" />
    <glyph glyph-name="U" unicode="U" horiz-adv-x="677" 
d="M477 594h-79v85h266v-85h-85v-391c0 -175 -127 -214 -235 -214c-196 0 -246 99 -246 215v390h-85v85h266v-85h-79v-393c0 -97 59 -130 136 -130c101 0 141 43 141 138v385z" />
    <glyph glyph-name="V" unicode="V" horiz-adv-x="708" 
d="M309 -7l-227 601h-84v85h268v-85h-79l173 -456l169 456h-79v85h261v-85h-83l-224 -601h-95z" />
    <glyph glyph-name="W" unicode="W" horiz-adv-x="1000" 
d="M255 -7l-173 601h-82v85h260v-85h-81l127 -444h2l122 444h-81v85h312v-85h-80l124 -444h2l125 444h-81v85h249v-85h-80l-169 -601h-97l-152 537h-2l-151 -537h-94z" />
    <glyph glyph-name="X" unicode="X" horiz-adv-x="656" 
d="M102 85l172 257l-172 252h-88v85h273v-85h-76l117 -172l119 172h-79v85h261v-85h-85l-167 -243l182 -266h88v-85h-279v85h79l-124 184l-124 -184h82v-85h-271v85h92z" />
    <glyph glyph-name="Y" unicode="Y" horiz-adv-x="646" 
d="M275 85v224l-202 285h-83v85h279v-85h-85l149 -209l137 209h-85v85h271v-85h-90l-189 -285v-224h93v-85h-286v85h91z" />
    <glyph glyph-name="Z" unicode="Z" horiz-adv-x="563" 
d="M25 0v85l364 509h-264v-119h-84v204h478v-75l-371 -519h298v131h84v-216h-505z" />
    <glyph glyph-name="bracketleft" unicode="[" horiz-adv-x="375" 
d="M105 680h241v-71h-147v-742h147v-71h-241v884z" />
    <glyph glyph-name="backslash" unicode="\" horiz-adv-x="438" 
d="M352 -14l-347 693h81l347 -693h-81z" />
    <glyph glyph-name="bracketright" unicode="]" horiz-adv-x="375" 
d="M270 -204h-241v71h147v742h-147v71h241v-884z" />
    <glyph glyph-name="asciicircum" unicode="^" horiz-adv-x="469" 
d="M268 679l208 -350h-86l-154 259l-157 -259h-86l211 350h64z" />
    <glyph glyph-name="underscore" unicode="_" horiz-adv-x="500" 
d="M506 -125h-512v50h512v-50z" />
    <glyph glyph-name="quoteleft" unicode="&#x2018;" horiz-adv-x="292" 
d="M206 544v-120h-120v120c0 87 31 134 120 135v-50c-43 -10 -60 -30 -60 -85h60z" />
    <glyph glyph-name="a" unicode="a" horiz-adv-x="531" 
d="M520 82v-82h-164v58c-59 -48 -100 -66 -152 -66c-90 0 -160 66 -160 150c0 86 75 153 172 153c42 0 91 -15 129 -40v62c0 67 -49 91 -105 91c-45 0 -80 -19 -101 -56l-89 24c40 73 108 110 204 110c138 0 185 -69 185 -145v-259h81zM345 120v56c-40 31 -82 47 -122 47
c-52 0 -90 -34 -90 -81c0 -46 35 -78 85 -78c42 0 89 21 127 56z" />
    <glyph glyph-name="b" unicode="b" horiz-adv-x="646" 
d="M25 0v82h84v515h-82v82h175v-273c51 56 103 80 172 80c133 0 230 -102 230 -245c0 -144 -98 -249 -231 -249c-69 0 -136 31 -169 79h-2v-71h-177zM205 235c0 -92 62 -161 148 -161c87 0 151 71 151 169c0 115 -85 158 -149 158c-88 0 -150 -69 -150 -166z" />
    <glyph glyph-name="c" unicode="c" horiz-adv-x="521" 
d="M484 472v-178h-84c-5 33 -19 60 -41 79c-21 18 -50 28 -84 28c-84 0 -140 -65 -140 -160c0 -101 59 -170 144 -170c63 0 114 33 142 93l77 -36c-41 -93 -119 -142 -222 -142c-164 0 -241 134 -241 254c0 136 103 246 232 246c51 0 98 -16 133 -46v32h84z" />
    <glyph glyph-name="d" unicode="d" horiz-adv-x="625" 
d="M623 82v-82h-180v70c-49 -53 -102 -78 -168 -78c-107 0 -232 73 -232 242c0 143 101 252 234 252c64 0 119 -26 166 -76v187h-90v82h184v-597h86zM143 237c0 -97 61 -163 149 -163s151 71 151 167c0 95 -62 160 -152 160c-84 0 -148 -70 -148 -164z" />
    <glyph glyph-name="e" unicode="e" 
d="M536 213h-397c14 -92 74 -145 162 -145c61 0 118 27 153 77l82 -36c-51 -79 -136 -123 -237 -123c-153 0 -263 104 -263 250c0 153 125 250 248 250c131 0 252 -100 252 -273zM142 281h299c-15 75 -81 130 -155 130s-130 -51 -144 -130z" />
    <glyph glyph-name="f" unicode="f" horiz-adv-x="292" 
d="M102 82v308h-69v82h69v85c0 94 59 136 126 136s111 -39 122 -109l-82 -13c-3 31 -15 46 -36 46c-23 0 -36 -19 -36 -51v-94h80v-82h-80v-308h91v-82h-252v82h67z" />
    <glyph glyph-name="g" unicode="g" horiz-adv-x="625" 
d="M614 472v-82h-85v-394c0 -169 -147 -219 -253 -219c-72 0 -123 17 -186 63l60 68c41 -33 86 -49 134 -49c58 0 152 30 152 134v71h-2c-37 -47 -104 -78 -169 -78c-133 0 -230 103 -230 243c0 142 102 251 234 251c63 0 118 -25 167 -75v67h178zM135 231
c0 -96 61 -163 148 -163c88 0 154 70 154 163c0 92 -65 162 -152 162c-86 0 -150 -69 -150 -162z" />
    <glyph glyph-name="h" unicode="h" 
d="M106 82v515h-85v82h179v-261c59 48 106 68 157 68c74 0 130 -37 130 -143v-261h81v-82h-175v323c0 46 -14 80 -58 80c-34 0 -82 -22 -135 -62v-259h81v-82h-261v82h86z" />
    <glyph glyph-name="i" unicode="i" horiz-adv-x="292" 
d="M99 82v308h-75v82h169v-390h75v-82h-244v82h75zM144 689c31 0 56 -25 56 -56s-25 -56 -56 -56s-56 25 -56 56s25 56 56 56z" />
    <glyph glyph-name="j" unicode="j" horiz-adv-x="292" 
d="M-18 -207v84c19 -3 30 -4 46 -4c65 0 83 30 83 97v420h-73v82h167v-469c0 -110 -6 -215 -169 -215c-20 0 -35 1 -54 5zM155 689c31 0 56 -25 56 -56s-25 -56 -56 -56s-56 25 -56 56s25 56 56 56z" />
    <glyph glyph-name="k" unicode="k" 
d="M109 82v515h-85v82h179v-424l177 139v2h-79v76h262v-76h-73l-177 -147l167 -167h81v-82h-120l-238 238v-156h70v-82h-250v82h86z" />
    <glyph glyph-name="l" unicode="l" horiz-adv-x="292" 
d="M110 82v515h-84v82h178v-597h73v-82h-253v82h86z" />
    <glyph glyph-name="m" unicode="m" horiz-adv-x="865" 
d="M114 82v308h-79v82h173v-59c55 44 108 67 160 67c53 0 94 -26 114 -74c68 53 116 74 170 74c78 0 126 -48 126 -130v-268h81v-82h-175v329c0 46 -21 69 -57 69c-38 0 -87 -23 -134 -62v-254h81v-82h-175v327c0 50 -28 67 -58 67c-34 0 -76 -18 -133 -58v-254h81v-82h-261
v82h86z" />
    <glyph glyph-name="n" unicode="n" 
d="M204 472v-57c63 46 111 65 161 65c67 0 124 -41 124 -134v-264h81v-82h-175v309c0 60 -17 86 -55 86s-88 -22 -136 -60v-253h81v-82h-256v82h81v308h-83v82h177z" />
    <glyph glyph-name="o" unicode="o" 
d="M38 236c0 143 106 250 249 250c142 0 248 -107 248 -250s-107 -250 -249 -250s-248 107 -248 250zM138 236c0 -92 64 -160 148 -160c85 0 149 68 149 160c0 91 -64 160 -149 160c-84 0 -148 -69 -148 -160z" />
    <glyph glyph-name="p" unicode="p" horiz-adv-x="625" 
d="M93 -130v520h-79v82h173v-74h2c42 54 100 82 164 82c135 0 231 -102 231 -246c0 -141 -101 -248 -232 -248c-60 0 -120 26 -165 72v-188h91v-82h-271v82h86zM185 230c0 -92 62 -159 149 -159c91 0 153 67 153 167c0 92 -63 160 -148 160c-88 0 -154 -72 -154 -168z" />
    <glyph glyph-name="q" unicode="q" horiz-adv-x="615" 
d="M527 -130h86v-82h-271v82h91v190c-44 -48 -104 -74 -166 -74c-131 0 -231 107 -231 249c0 143 96 245 231 245c64 0 122 -28 164 -82h2v74h173v-82h-79v-520zM435 230c0 96 -66 168 -154 168c-86 0 -148 -68 -148 -161c0 -99 61 -166 152 -166c87 0 150 67 150 159z" />
    <glyph glyph-name="r" unicode="r" horiz-adv-x="417" 
d="M117 82v308h-95v82h169v-106h2c30 79 90 114 149 114h61v-94h-50c-109 0 -142 -61 -142 -169v-135h102v-82h-289v82h93z" />
    <glyph glyph-name="s" unicode="s" horiz-adv-x="458" 
d="M41 0v162h83v-16c8 -47 51 -76 113 -76c59 0 97 23 97 59c0 88 -166 32 -256 122c-22 22 -37 55 -37 90c0 81 70 139 166 139c43 0 84 -10 115 -27v19h82v-156h-82v29c-27 40 -62 58 -110 58c-50 0 -83 -23 -83 -58c0 -79 182 -33 260 -111c28 -28 40 -65 40 -98
c0 -86 -73 -144 -181 -144c-51 0 -90 11 -124 34v-26h-83z" />
    <glyph glyph-name="t" unicode="t" horiz-adv-x="302" 
d="M30 390v82h61v73l94 85v-158h87v-82h-87v-273c0 -46 41 -44 87 -28v-84c-22 -7 -47 -13 -69 -13c-66 0 -112 30 -112 112v286h-61z" />
    <glyph glyph-name="u" unicode="u" horiz-adv-x="563" 
d="M553 82v-82h-175v54c-53 -41 -105 -62 -154 -62c-86 0 -131 47 -131 146v252h-67v82h161v-329c0 -48 20 -69 56 -69c39 0 93 23 135 60v256h-81v82h175v-390h81z" />
    <glyph glyph-name="v" unicode="v" horiz-adv-x="542" 
d="M236 -8l-155 398h-83v82h238v-82h-62l102 -268l102 268h-66v82h232v-82h-73l-152 -398h-83z" />
    <glyph glyph-name="w" unicode="w" horiz-adv-x="771" 
d="M183 -8l-126 398h-58v82h199v-82h-61l89 -285h2l89 285h-52v82h229v-82h-51l89 -285h2l90 285h-66v82h213v-82h-67l-127 -398h-87l-107 342h-2l-110 -342h-88z" />
    <glyph glyph-name="x" unicode="x" horiz-adv-x="552" 
d="M277 188l-92 -106h61v-82h-230v82h70l143 161l-136 147h-64v82h222v-82h-59l85 -91l82 91h-48v82h223v-82h-78l-129 -147l148 -161h61v-82h-226v82h67z" />
    <glyph glyph-name="y" unicode="y" horiz-adv-x="563" 
d="M242 9l-155 381h-79v82h234v-82h-56l102 -261l100 261h-63v82h229v-82h-70l-234 -602h-158v82h93z" />
    <glyph glyph-name="z" unicode="z" horiz-adv-x="448" 
d="M16 0v77l294 319h-192v-91h-79v167h384v-82l-298 -313h215v97h83v-174h-407z" />
    <glyph glyph-name="braceleft" unicode="{" horiz-adv-x="333" 
d="M28 196v76c88 0 101 67 101 148v85c0 101 27 174 141 174h41v-72h-15c-70 0 -84 -16 -84 -96v-67c0 -128 -23 -174 -103 -210c80 -36 103 -82 103 -210v-68c0 -80 14 -96 84 -96h15v-72h-41c-114 0 -141 73 -141 174v86c0 81 -13 148 -101 148z" />
    <glyph glyph-name="bar" unicode="|" horiz-adv-x="527" 
d="M225 679h77v-891h-77v891z" />
    <glyph glyph-name="braceright" unicode="}" horiz-adv-x="333" 
d="M305 271v-76c-88 0 -102 -67 -102 -148v-85c0 -101 -26 -174 -140 -174h-41v72h15c70 0 85 16 85 96v67c0 128 22 174 102 210c-80 36 -102 82 -102 210v68c0 80 -15 96 -85 96h-15v72h41c114 0 140 -73 140 -174v-86c0 -81 14 -148 102 -148z" />
    <glyph glyph-name="asciitilde" unicode="~" horiz-adv-x="583" 
d="M41 272v100c33 38 82 59 135 59c48 0 91 -16 130 -33c40 -17 75 -34 108 -34c41 0 89 25 128 68v-103c-22 -20 -43 -34 -65 -43s-45 -13 -72 -13c-47 0 -86 17 -124 34s-74 33 -113 33c-44 0 -75 -16 -127 -68z" />
    <glyph glyph-name="exclamdown" unicode="&#xa1;" horiz-adv-x="292" 
d="M171 288l24 -288v-207h-98v207l24 288h50zM206 472v-120h-120v120h120z" />
    <glyph glyph-name="cent" unicode="&#xa2;" horiz-adv-x="521" 
d="M78 -216l84 231c-73 45 -122 123 -122 225c0 166 147 277 285 238l76 216h54l-83 -232c10 -5 21 -12 33 -22v32h84v-178h-84c-8 43 -23 72 -61 91l-109 -306c76 -25 153 7 191 85l77 -36c-58 -129 -182 -162 -297 -132l-75 -212h-53zM196 108l101 291
c-80 14 -157 -47 -157 -159c0 -65 15 -91 56 -132z" />
    <glyph glyph-name="sterling" unicode="&#xa3;" horiz-adv-x="542" 
d="M294 690c118 0 190 -73 183 -191h-94c8 32 6 112 -83 112c-55 0 -91 -24 -91 -79c0 -47 30 -117 47 -161h121v-79h-98c12 -48 6 -118 -9 -165c35 -16 73 -40 111 -40c52 0 78 33 83 85h59c0 -119 -60 -183 -143 -183c-60 0 -95 26 -145 60c-29 -35 -61 -60 -107 -60
c-54 0 -96 36 -96 90c0 55 46 96 101 96c26 0 49 -7 72 -19c0 50 -6 89 -23 136h-150v79h121c-19 36 -41 115 -41 156c0 106 76 163 182 163zM187 85c-32 23 -49 31 -67 31c-22 0 -39 -16 -39 -37c0 -22 17 -37 41 -37c25 0 42 12 65 43z" />
    <glyph glyph-name="fraction" unicode="&#x2044;" horiz-adv-x="302" 
d="M-148 0l539 679h59l-538 -679h-60z" />
    <glyph glyph-name="yen" unicode="&#xa5;" horiz-adv-x="646" 
d="M237 517h181l50 77h-85v85h271v-85h-90l-51 -77h131v-57h-169l-100 -151h269v-57h-269v-167h93v-85h-286v85h91v167h-271v57h271l-106 151h-165v57h124l-55 77h-83v85h279v-85h-85zM381 460h-103l53 -75z" />
    <glyph glyph-name="florin" unicode="&#x192;" horiz-adv-x="552" 
d="M23 -200l17 76c34 -8 56 -11 74 -11c44 0 53 24 61 69l88 516h-98l11 68h99l11 65c16 95 47 145 139 145c29 0 63 -5 105 -19l-17 -74c-38 8 -56 11 -76 11c-39 0 -52 -15 -63 -78l-9 -50h99l-12 -68h-100l-93 -535c-16 -91 -52 -127 -127 -127c-29 0 -68 4 -109 12z" />
    <glyph glyph-name="section" unicode="&#xa7;" horiz-adv-x="479" 
d="M426 513h-93c-5 65 -42 96 -107 96c-53 0 -92 -29 -92 -71c0 -123 321 -88 321 -272c0 -59 -31 -104 -96 -143c52 -30 81 -76 81 -130c0 -98 -79 -167 -191 -167c-125 0 -193 77 -193 181h93c2 -62 39 -96 102 -96c58 0 96 29 96 72c0 120 -322 84 -322 270
c0 56 32 101 98 140c-52 30 -82 77 -82 134c0 89 80 164 190 164c115 0 195 -58 195 -178zM180 364c-51 -30 -68 -52 -68 -87c0 -65 77 -73 186 -124c44 22 71 56 71 89c0 69 -112 83 -189 122z" />
    <glyph glyph-name="currency" unicode="&#xa4;" horiz-adv-x="667" 
d="M89 532l52 52l63 -64c41 29 80 42 128 42c49 0 89 -13 130 -42l64 64l51 -52l-63 -64c29 -43 41 -83 41 -131c0 -47 -13 -87 -41 -126l63 -63l-51 -51l-64 63c-43 -30 -83 -43 -131 -43s-87 13 -127 43l-63 -63l-52 51l64 63c-29 46 -42 86 -42 132s13 84 42 125z
M333 490c-83 0 -150 -68 -150 -151s67 -150 150 -150s150 67 150 150s-67 151 -150 151z" />
    <glyph glyph-name="quotesingle" unicode="'" horiz-adv-x="177" 
d="M63 424l-14 138v117h80v-117l-14 -138h-52z" />
    <glyph glyph-name="quotedblleft" unicode="&#x201c;" horiz-adv-x="521" 
d="M442 544v-120h-120v120c0 87 31 134 120 135v-50c-43 -10 -60 -30 -60 -85h60zM200 544v-120h-120v120c0 87 31 134 120 135v-50c-43 -10 -60 -30 -60 -85h60z" />
    <glyph glyph-name="guillemotleft" unicode="&#xab;" horiz-adv-x="479" 
d="M325 237l143 -237h-95l-148 237l148 237h95zM116 237l143 -237h-95l-148 237l148 237h95z" />
    <glyph glyph-name="guilsinglleft" unicode="&#x2039;" horiz-adv-x="292" 
d="M127 237l143 -237h-95l-148 237l148 237h95z" />
    <glyph glyph-name="guilsinglright" unicode="&#x203a;" horiz-adv-x="292" 
d="M165 237l-143 237h95l148 -237l-148 -237h-95z" />
    <glyph glyph-name="endash" unicode="&#x2013;" horiz-adv-x="500" 
d="M-6 292h512v-85h-512v85z" />
    <glyph glyph-name="dagger" unicode="&#x2020;" horiz-adv-x="521" 
d="M279 407c0 -46 13 -99 32 -137v-120l-32 -367h-37l-32 368v119c14 26 19 43 24 61c3 10 8 33 8 76c-51 0 -104 -15 -124 -29h-95v94h95c22 -13 32 -14 48 -19c20 -6 44 -10 76 -10c0 66 -10 99 -32 134v113h101v-113c-11 -17 -19 -34 -25 -55c-5 -21 -7 -46 -7 -79
c49 0 104 15 124 29h95v-94h-95c-14 9 -30 16 -49 21c-20 5 -44 8 -75 8z" />
    <glyph glyph-name="daggerdbl" unicode="&#x2021;" horiz-adv-x="521" 
d="M323 241c-23 -42 -44 -136 -44 -182c43 -1 85 10 111 26h91v-91h-91c-14 9 -28 15 -45 19s-37 7 -66 10c4 -54 14 -89 32 -118v-113h-101v113c9 16 14 31 21 48c5 12 11 41 11 70c-40 -3 -84 -10 -111 -29h-91v91h91c18 -10 35 -17 53 -21c19 -4 38 -5 58 -5
c-6 66 -17 125 -44 182c27 57 38 116 44 182c-45 0 -84 -9 -111 -26h-91v91h91c13 -9 31 -16 50 -20c20 -5 41 -7 61 -9c-5 61 -13 87 -32 118v113h101v-113c-9 -14 -16 -30 -22 -49c-5 -19 -8 -42 -10 -69c58 6 83 12 111 29h91v-91h-91c-13 8 -30 15 -50 20
c-19 4 -40 7 -61 6c0 -46 21 -140 44 -182z" />
    <glyph glyph-name="periodcentered" unicode="&#xb7;" horiz-adv-x="292" 
d="M86 268v120h120v-120h-120z" />
    <glyph glyph-name="paragraph" unicode="&#xb6;" horiz-adv-x="542" 
d="M197 -212v486c-121 7 -197 84 -197 200c0 107 67 205 224 205h316v-85h-70v-806h-84v806h-105v-806h-84z" />
    <glyph glyph-name="bullet" unicode="&#x2022;" horiz-adv-x="354" 
d="M177 462c68 0 123 -54 123 -122s-55 -123 -123 -123s-122 55 -122 123s54 122 122 122z" />
    <glyph glyph-name="quotesinglbase" unicode="&#x201a;" horiz-adv-x="292" 
d="M86 0v120h120v-120c0 -87 -31 -134 -120 -135v50c43 10 60 30 60 85h-60z" />
    <glyph glyph-name="quotedblbase" unicode="&#x201e;" horiz-adv-x="521" 
d="M321 0v120h120v-120c0 -87 -31 -134 -120 -135v50c43 10 60 30 60 85h-60zM79 0v120h120v-120c0 -87 -31 -134 -120 -135v50c43 10 60 30 60 85h-60z" />
    <glyph glyph-name="quotedblright" unicode="&#x201d;" horiz-adv-x="521" 
d="M321 559v120h120v-120c0 -87 -31 -134 -120 -135v50c43 10 60 30 60 85h-60zM79 559v120h120v-120c0 -87 -31 -134 -120 -135v50c43 10 60 30 60 85h-60z" />
    <glyph glyph-name="guillemotright" unicode="&#xbb;" horiz-adv-x="479" 
d="M363 237l-143 237h95l148 -237l-148 -237h-95zM154 237l-143 237h95l148 -237l-148 -237h-95z" />
    <glyph glyph-name="ellipsis" unicode="&#x2026;" horiz-adv-x="1000" 
d="M773 0v120h120v-120h-120zM440 0v120h120v-120h-120zM107 0v120h120v-120h-120z" />
    <glyph glyph-name="perthousand" unicode="&#x2030;" horiz-adv-x="1083" 
d="M770 162c0 108 55 177 142 177c86 0 142 -69 142 -177c0 -107 -56 -176 -142 -176c-87 0 -142 69 -142 176zM849 162c0 -78 20 -115 63 -115c42 0 63 37 63 115s-21 115 -63 115c-43 0 -63 -37 -63 -115zM405 162c0 108 55 177 142 177c86 0 142 -69 142 -177
c0 -107 -56 -176 -142 -176c-87 0 -142 69 -142 176zM484 162c0 -78 20 -115 63 -115c42 0 63 37 63 115s-21 115 -63 115c-43 0 -63 -37 -63 -115zM30 512c0 108 55 177 142 177c86 0 142 -69 142 -177c0 -107 -56 -176 -142 -176c-87 0 -142 69 -142 176zM109 512
c0 -78 20 -115 63 -115c42 0 63 37 63 115s-21 115 -63 115c-43 0 -63 -37 -63 -115zM58 0l539 679h69l-535 -679h-73z" />
    <glyph glyph-name="questiondown" unicode="&#xbf;" horiz-adv-x="469" 
d="M234 289h50l12 -212l-7 -3c-81 14 -160 -14 -160 -105c0 -66 42 -108 108 -108c75 0 117 46 111 139h92c15 -171 -113 -218 -200 -218c-128 0 -207 74 -207 192c0 91 58 187 189 183zM320 472v-120h-120v120h120z" />
    <glyph glyph-name="grave" unicode="`" horiz-adv-x="333" 
d="M258 535h-63l-141 155h135z" />
    <glyph glyph-name="acute" unicode="&#xb4;" horiz-adv-x="333" 
d="M76 535l69 155h135l-141 -155h-63z" />
    <glyph glyph-name="circumflex" unicode="&#x2c6;" horiz-adv-x="333" 
d="M165 622l-81 -86h-66l82 153h130l85 -153h-69z" />
    <glyph glyph-name="tilde" unicode="&#x2dc;" horiz-adv-x="333" 
d="M274 679h54c0 -82 -31 -135 -89 -135c-60 0 -114 61 -150 61c-23 0 -28 -20 -28 -54h-56c0 94 42 131 89 131c53 0 113 -60 145 -60c23 0 34 18 35 57z" />
    <glyph glyph-name="macron" unicode="&#xaf;" horiz-adv-x="333" 
d="M24 582v53h285v-53h-285z" />
    <glyph glyph-name="breve" unicode="&#x2d8;" horiz-adv-x="333" 
d="M16 682h70c4 -23 13 -41 27 -53c13 -12 32 -18 54 -18c44 0 73 25 80 71h70c-4 -42 -21 -77 -47 -101s-61 -38 -103 -38c-84 0 -143 54 -151 139z" />
    <glyph glyph-name="dotaccent" unicode="&#x2d9;" horiz-adv-x="333" 
d="M167 669c31 0 56 -25 56 -56s-25 -56 -56 -56s-56 25 -56 56s25 56 56 56z" />
    <glyph glyph-name="dieresis" unicode="&#xa8;" horiz-adv-x="333" 
d="M255 669c31 0 56 -25 56 -56s-25 -56 -56 -56s-56 25 -56 56s25 56 56 56zM78 669c31 0 56 -25 56 -56s-25 -56 -56 -56s-56 25 -56 56s25 56 56 56z" />
    <glyph glyph-name="ring" unicode="&#x2da;" horiz-adv-x="333" 
d="M264 613c0 -54 -44 -98 -98 -98s-97 44 -97 98s43 97 97 97s98 -43 98 -97zM225 613c0 33 -26 59 -59 59s-59 -26 -59 -59s26 -59 59 -59s59 26 59 59z" />
    <glyph glyph-name="cedilla" unicode="&#xb8;" horiz-adv-x="333" 
d="M108 -202v50c47 -1 71 6 71 33c0 18 -12 27 -39 28l16 98h46l-6 -44c36 -9 57 -37 57 -77c0 -48 -32 -88 -110 -88h-35z" />
    <glyph glyph-name="hungarumlaut" unicode="&#x2dd;" horiz-adv-x="333" 
d="M148 535l69 155h135l-141 -155h-63zM-19 535l69 155h135l-141 -155h-63z" />
    <glyph glyph-name="ogonek" unicode="&#x2db;" horiz-adv-x="333" 
d="M105 0h78c-15 -28 -20 -46 -20 -71c0 -43 18 -64 54 -64c15 0 24 2 41 10v-65c-34 -16 -56 -22 -82 -22c-60 0 -100 41 -100 103c0 32 7 60 29 109z" />
    <glyph glyph-name="caron" unicode="&#x2c7;" horiz-adv-x="333" 
d="M169 603l80 86h66l-82 -153h-130l-85 153h69z" />
    <glyph glyph-name="emdash" unicode="&#x2014;" horiz-adv-x="1000" 
d="M-6 292h1012v-85h-1012v85z" />
    <glyph glyph-name="AE" unicode="&#xc6;" horiz-adv-x="938" 
d="M416 310h-191l-117 -225h74v-85h-241v85h66l263 509h-108v85h735v-204h-84v119h-295v-199h256v-85h-256v-225h295v124h84v-209h-589v85h108v225zM416 395v199h-43l-105 -199h148z" />
    <glyph glyph-name="ordfeminine" unicode="&#xaa;" horiz-adv-x="344" 
d="M330 448v-50h-105v35c-27 -25 -63 -40 -98 -40c-58 0 -104 39 -104 90c0 52 49 92 113 92c27 0 57 -9 83 -24v39c0 32 -23 53 -68 53c-30 0 -52 -12 -66 -34l-57 15c25 44 69 66 132 66c58 0 118 -17 118 -91v-151h52zM219 471v33c-24 18 -53 28 -78 28
c-35 0 -60 -20 -60 -48s23 -47 56 -47c27 0 58 13 82 34z" />
    <glyph glyph-name="Lslash" unicode="&#x141;" horiz-adv-x="521" 
d="M104 85v180l-90 -79v88l90 80v240h-90v85h278v-85h-86v-169l122 104v-88l-122 -104v-252h212v231h94v-316h-498v85h90z" />
    <glyph glyph-name="Oslash" unicode="&#xd8;" horiz-adv-x="802" 
d="M716 646l-55 -63c59 -62 91 -148 91 -243c0 -203 -149 -351 -353 -351c-78 0 -150 22 -209 63l-55 -62l-50 42l56 63c-58 64 -91 154 -91 250c0 199 147 345 348 345c81 0 153 -22 213 -64l56 63zM589 502l-332 -375c41 -32 89 -48 142 -48c135 0 241 115 241 262
c0 59 -18 117 -51 161zM211 174l333 376c-45 34 -92 50 -146 50c-137 0 -236 -108 -236 -257c0 -63 17 -121 49 -169z" />
    <glyph glyph-name="OE" unicode="&#x152;" horiz-adv-x="1021" 
d="M613 594v-199h252v-85h-252v-225h291v123h84v-208h-601c-219 0 -347 162 -347 338c0 107 60 341 362 341h586v-204h-84v119h-291zM511 594h-109c-184 0 -258 -115 -258 -254c0 -123 57 -255 265 -255h102v509z" />
    <glyph glyph-name="ordmasculine" unicode="&#xba;" horiz-adv-x="375" 
d="M26 540c0 86 69 150 162 150c92 0 161 -64 161 -150s-69 -150 -161 -150c-93 0 -162 64 -162 150zM90 540c0 -55 42 -96 98 -96c55 0 97 41 97 96c0 54 -42 95 -97 95c-56 0 -98 -41 -98 -95z" />
    <glyph glyph-name="ae" unicode="&#xe6;" horiz-adv-x="885" 
d="M842 213h-384c7 -85 72 -145 157 -145c54 0 110 27 145 73l82 -36c-43 -73 -130 -119 -225 -119c-86 0 -159 35 -211 102c-43 -61 -120 -102 -193 -102c-100 0 -171 62 -171 149c0 114 112 156 184 156c42 0 96 -16 138 -40v66c0 67 -51 90 -109 90
c-56 0 -95 -19 -118 -58l-90 26c41 73 116 111 218 111c78 0 134 -25 169 -73c42 47 101 73 167 73c139 0 238 -111 241 -273zM458 281h283c-13 74 -69 123 -142 123c-70 0 -126 -49 -141 -123zM364 122v47c-37 29 -81 46 -122 46c-56 0 -96 -33 -96 -80
c0 -42 37 -73 86 -73c47 0 98 23 132 60z" />
    <glyph glyph-name="dotlessi" unicode="&#x131;" horiz-adv-x="292" 
d="M99 82v308h-75v82h169v-390h75v-82h-244v82h75z" />
    <glyph glyph-name="lslash" unicode="&#x142;" horiz-adv-x="292" 
d="M110 82v184l-101 -81v81l101 80v251h-84v82h178v-267l97 81v-81l-97 -81v-249h73v-82h-253v82h86z" />
    <glyph glyph-name="oslash" unicode="&#xf8;" 
d="M60 3l47 56c-45 46 -69 108 -69 178c0 142 107 249 248 249c53 0 106 -16 147 -45l47 55l33 -28l-47 -55c45 -47 69 -107 69 -177c0 -142 -107 -250 -248 -250c-53 0 -103 15 -146 45l-47 -56zM170 132l202 237c-27 18 -54 27 -85 27c-85 0 -149 -69 -149 -159
c0 -40 11 -75 32 -105zM403 339l-201 -236c27 -18 54 -27 85 -27c84 0 148 69 148 160c0 40 -11 75 -32 103z" />
    <glyph glyph-name="oe" unicode="&#x153;" horiz-adv-x="948" 
d="M909 213h-391c6 -84 70 -145 154 -145c62 0 113 26 155 77l82 -35c-47 -83 -146 -124 -236 -124c-84 0 -154 33 -203 96c-47 -64 -109 -96 -187 -96c-141 0 -248 108 -248 250c0 166 137 250 244 250c75 0 140 -33 191 -96c45 62 112 96 189 96c132 0 250 -105 250 -273z
M521 281h283c-14 73 -73 123 -147 123c-71 0 -121 -46 -136 -123zM135 234c0 -91 63 -158 147 -158s144 68 144 161c0 88 -63 155 -146 155s-145 -68 -145 -158z" />
    <glyph glyph-name="germandbls" unicode="&#xdf;" horiz-adv-x="646" 
d="M206 82h74v-82h-254v82h86v363c0 93 15 145 61 191c33 33 98 57 163 57c121 0 204 -67 204 -166c0 -62 -30 -108 -88 -136v-2c95 -20 150 -92 150 -194c0 -121 -75 -203 -185 -203c-32 0 -60 6 -85 19v78c22 -12 40 -15 61 -15c66 0 109 48 109 123
c0 84 -49 144 -170 144v77c77 0 111 50 111 99c0 56 -43 94 -108 94c-93 0 -129 -51 -129 -164v-365z" />
    <glyph glyph-name="logicalnot" unicode="&#xac;" horiz-adv-x="667" 
d="M66 485h535v-315h-77v238h-458v77z" />
    <glyph glyph-name="mu" unicode="&#xb5;" horiz-adv-x="552" 
d="M485 472v-472h-78v61h-2c-35 -53 -70 -72 -128 -72c-55 0 -86 16 -122 63h-2v-264h-87v684h87v-236c0 -109 41 -169 119 -169c65 0 126 47 126 152v253h87z" />
    <glyph glyph-name="trademark" unicode="&#x2122;" horiz-adv-x="1000" 
d="M240 281v339h-129v59h324v-59h-129v-339h-66zM481 281v398h98l99 -318h2l96 318h98v-398h-61v334h-2l-102 -334h-60l-105 334h-2v-334h-61z" />
    <glyph glyph-name="Eth" unicode="&#xd0;" horiz-adv-x="729" 
d="M105 594h-92v85h319c263 0 346 -170 346 -333c0 -219 -111 -346 -355 -346h-310v85h92v212h-92v85h92v212zM207 594v-212h155v-85h-155v-212h120c188 0 247 115 247 258c0 145 -72 251 -245 251h-122z" />
    <glyph glyph-name="onehalf" unicode="&#xbd;" horiz-adv-x="969" 
d="M97 0l539 679h59l-538 -679h-60zM765 130l-4 -130h-268c0 167 199 184 199 257c0 34 -22 54 -61 54c-45 0 -70 -24 -62 -94h-66c-9 85 37 141 130 141c76 0 128 -39 128 -97c0 -104 -171 -116 -197 -210h139v79h62zM131 380v256h-56v48h122v-304h53v-48h-174v48h55z" />
    <glyph glyph-name="plusminus" unicode="&#xb1;" horiz-adv-x="667" 
d="M66 53h535v-77h-535v77zM295 371h-229v77h229v229h77v-229h229v-77h-229v-229h-77v229z" />
    <glyph glyph-name="Thorn" unicode="&#xde;" 
d="M105 85v509h-85v85h276v-85h-89v-51h114c188 0 227 -106 227 -192s-39 -215 -227 -215h-114v-51h89v-85h-276v85h85zM207 218h114c82 0 123 41 123 120s-45 120 -123 120h-114v-240z" />
    <glyph glyph-name="onequarter" unicode="&#xbc;" horiz-adv-x="969" 
d="M628 93h-135c-5 18 -12 30 -26 42l169 220h56v-214h64v-48h-64v-45h37v-48h-144v48h43v45zM97 0l539 679h59l-538 -679h-60zM628 141v126h-2l-95 -126h97zM131 380v256h-56v48h122v-304h53v-48h-174v48h55z" />
    <glyph glyph-name="divide" unicode="&#xf7;" horiz-adv-x="668" 
d="M66 365h534v-77h-534v77zM333 172c27 0 48 -21 48 -48s-21 -48 -48 -48s-48 21 -48 48s21 48 48 48zM333 577c27 0 48 -21 48 -48s-21 -48 -48 -48s-48 21 -48 48s21 48 48 48z" />
    <glyph glyph-name="brokenbar" unicode="&#xa6;" horiz-adv-x="527" 
d="M225 168h77v-380h-77v380zM225 679h77v-380h-77v380z" />
    <glyph glyph-name="degree" unicode="&#xb0;" horiz-adv-x="396" 
d="M198 638c-55 0 -96 -41 -96 -96s41 -96 96 -96s96 41 96 96s-41 96 -96 96zM198 691c83 0 150 -67 150 -150s-67 -150 -150 -150s-150 67 -150 150s67 150 150 150z" />
    <glyph glyph-name="thorn" unicode="&#xfe;" horiz-adv-x="625" 
d="M93 -130v727h-79v82h173v-281h2c42 54 100 82 164 82c135 0 231 -102 231 -247c0 -140 -101 -247 -232 -247c-60 0 -120 26 -165 72v-188h91v-82h-271v82h86zM185 230c0 -92 62 -159 149 -159c91 0 153 67 153 167c0 92 -63 160 -148 160c-88 0 -154 -72 -154 -168z" />
    <glyph glyph-name="threequarters" unicode="&#xbe;" horiz-adv-x="969" 
d="M717 93h-135c-5 18 -12 30 -26 42l169 220h56v-214h64v-48h-64v-45h37v-48h-144v48h43v45zM186 0l539 679h59l-538 -679h-60zM717 141v126h-2l-95 -126h97zM184 491h-25v49h27c57 0 75 20 75 50c0 32 -22 53 -57 53c-41 0 -59 -20 -60 -70h-68c0 77 43 117 126 117
c76 0 125 -38 125 -96c0 -33 -13 -55 -47 -77c47 -20 65 -42 65 -84c0 -64 -59 -107 -145 -107c-92 0 -142 46 -142 129h65c1 -54 30 -82 82 -82c44 0 72 23 72 58c0 37 -31 60 -93 60z" />
    <glyph glyph-name="registered" unicode="&#xae;" horiz-adv-x="740" 
d="M208 156v396h173c95 0 133 -56 133 -107c0 -61 -47 -107 -113 -111v-2c27 -10 52 -37 74 -71l66 -105h-78l-35 62c-50 89 -69 106 -118 106h-38v-168h-64zM272 379h91c52 0 83 21 83 60c0 34 -23 59 -76 59h-98v-119zM369 728c204 0 369 -164 369 -368
s-165 -369 -369 -369s-368 165 -368 369s164 368 368 368zM369 667c-170 0 -307 -137 -307 -307s137 -308 307 -308s308 138 308 308s-138 307 -308 307z" />
    <glyph glyph-name="minus" unicode="&#x2212;" horiz-adv-x="667" 
d="M66 365h535v-77h-535v77z" />
    <glyph glyph-name="eth" unicode="&#xf0;" 
d="M138 236c0 -92 64 -160 148 -160c85 0 149 68 149 160c0 91 -64 160 -149 160c-74 0 -148 -59 -148 -160zM514 647l-129 -48c106 -99 150 -235 150 -334c0 -180 -106 -279 -251 -279c-160 0 -246 130 -246 250c0 146 117 250 231 250c39 0 89 -11 130 -47l2 2
c-17 39 -57 86 -105 125l-132 -50l-53 41l130 49c-32 22 -65 38 -95 47l95 36c33 -13 63 -29 91 -48l128 48z" />
    <glyph glyph-name="multiply" unicode="&#xd7;" horiz-adv-x="668" 
d="M581 520l-194 -194l194 -194l-55 -55l-192 193l-192 -193l-55 55l194 194l-194 194l54 54l193 -193l193 193z" />
    <glyph glyph-name="copyright" unicode="&#xa9;" horiz-adv-x="740" 
d="M488 300l60 -18c-20 -83 -87 -134 -178 -134c-117 0 -193 83 -193 211s75 207 197 207c85 0 145 -41 167 -115l-58 -14c-19 48 -58 75 -111 75c-78 0 -128 -61 -128 -155s47 -151 123 -151c60 0 106 36 121 94zM369 728c204 0 369 -164 369 -368s-165 -369 -369 -369
s-368 165 -368 369s164 368 368 368zM369 667c-170 0 -307 -137 -307 -307s137 -308 307 -308s308 138 308 308s-138 307 -308 307z" />
    <glyph glyph-name="Aacute" unicode="&#xc1;" horiz-adv-x="698" 
d="M474 239h-244l-53 -154h83v-85h-268v85h82l186 518h-80v76h347v-76h-80l183 -518h76v-85h-266v85h84zM448 318l-90 285h-9l-94 -285h193zM259 742l69 155h135l-141 -155h-63z" />
    <glyph glyph-name="Acircumflex" unicode="&#xc2;" horiz-adv-x="698" 
d="M474 239h-244l-53 -154h83v-85h-268v85h82l186 518h-80v76h347v-76h-80l183 -518h76v-85h-266v85h84zM448 318l-90 285h-9l-94 -285h193zM348 829l-81 -86h-66l82 153h130l85 -153h-69z" />
    <glyph glyph-name="Adieresis" unicode="&#xc4;" horiz-adv-x="698" 
d="M474 239h-244l-53 -154h83v-85h-268v85h82l186 518h-80v76h347v-76h-80l183 -518h76v-85h-266v85h84zM448 318l-90 285h-9l-94 -285h193zM438 876c31 0 56 -25 56 -56s-25 -56 -56 -56s-56 25 -56 56s25 56 56 56zM261 876c31 0 56 -25 56 -56s-25 -56 -56 -56
s-56 25 -56 56s25 56 56 56z" />
    <glyph glyph-name="Agrave" unicode="&#xc0;" horiz-adv-x="698" 
d="M474 239h-244l-53 -154h83v-85h-268v85h82l186 518h-80v76h347v-76h-80l183 -518h76v-85h-266v85h84zM448 318l-90 285h-9l-94 -285h193zM441 742h-63l-141 155h135z" />
    <glyph glyph-name="Aring" unicode="&#xc5;" horiz-adv-x="698" 
d="M474 239h-244l-53 -154h83v-85h-268v85h82l186 518h-80v76h347v-76h-80l183 -518h76v-85h-266v85h84zM448 318l-90 285h-9l-94 -285h193zM447 820c0 -54 -44 -98 -98 -98s-97 44 -97 98s43 97 97 97s98 -43 98 -97zM408 820c0 33 -26 59 -59 59s-59 -26 -59 -59
s26 -59 59 -59s59 26 59 59z" />
    <glyph glyph-name="Atilde" unicode="&#xc3;" horiz-adv-x="698" 
d="M474 239h-244l-53 -154h83v-85h-268v85h82l186 518h-80v76h347v-76h-80l183 -518h76v-85h-266v85h84zM448 318l-90 285h-9l-94 -285h193zM457 886h54c0 -82 -31 -135 -89 -135c-60 0 -114 61 -150 61c-23 0 -28 -20 -28 -54h-56c0 94 42 131 89 131c53 0 113 -60 145 -60
c23 0 34 18 35 57z" />
    <glyph glyph-name="Ccedilla" unicode="&#xc7;" horiz-adv-x="760" 
d="M320 -91l14 83c-174 21 -291 158 -291 347c0 211 134 351 338 351c86 0 165 -26 224 -73v62h88v-218h-88c-39 86 -123 139 -219 139c-135 0 -231 -108 -231 -258c0 -148 101 -261 235 -261c92 0 199 61 233 195l89 -49c-40 -148 -163 -238 -332 -238l-4 -26
c36 -9 57 -37 57 -77c0 -48 -32 -88 -110 -88h-35v50c47 -1 71 6 71 33c0 18 -12 27 -39 28z" />
    <glyph glyph-name="Eacute" unicode="&#xc9;" horiz-adv-x="625" 
d="M116 85v509h-88v85h563v-204h-84v119h-289v-202h252v-85h-252v-222h289v124h84v-209h-563v85h88zM222 742l69 155h135l-141 -155h-63z" />
    <glyph glyph-name="Ecircumflex" unicode="&#xca;" horiz-adv-x="625" 
d="M116 85v509h-88v85h563v-204h-84v119h-289v-202h252v-85h-252v-222h289v124h84v-209h-563v85h88zM311 829l-81 -86h-66l82 153h130l85 -153h-69z" />
    <glyph glyph-name="Edieresis" unicode="&#xcb;" horiz-adv-x="625" 
d="M116 85v509h-88v85h563v-204h-84v119h-289v-202h252v-85h-252v-222h289v124h84v-209h-563v85h88zM401 876c31 0 56 -25 56 -56s-25 -56 -56 -56s-56 25 -56 56s25 56 56 56zM224 876c31 0 56 -25 56 -56s-25 -56 -56 -56s-56 25 -56 56s25 56 56 56z" />
    <glyph glyph-name="Egrave" unicode="&#xc8;" horiz-adv-x="625" 
d="M116 85v509h-88v85h563v-204h-84v119h-289v-202h252v-85h-252v-222h289v124h84v-209h-563v85h88zM404 742h-63l-141 155h135z" />
    <glyph glyph-name="Iacute" unicode="&#xcd;" horiz-adv-x="313" 
d="M105 85v509h-74v85h250v-85h-74v-509h74v-85h-250v85h74zM66 742l69 155h135l-141 -155h-63z" />
    <glyph glyph-name="Icircumflex" unicode="&#xce;" horiz-adv-x="313" 
d="M105 85v509h-74v85h250v-85h-74v-509h74v-85h-250v85h74zM155 829l-81 -86h-66l82 153h130l85 -153h-69z" />
    <glyph glyph-name="Idieresis" unicode="&#xcf;" horiz-adv-x="313" 
d="M105 85v509h-74v85h250v-85h-74v-509h74v-85h-250v85h74zM245 876c31 0 56 -25 56 -56s-25 -56 -56 -56s-56 25 -56 56s25 56 56 56zM68 876c31 0 56 -25 56 -56s-25 -56 -56 -56s-56 25 -56 56s25 56 56 56z" />
    <glyph glyph-name="Igrave" unicode="&#xcc;" horiz-adv-x="313" 
d="M105 85v509h-74v85h250v-85h-74v-509h74v-85h-250v85h74zM248 742h-63l-141 155h135z" />
    <glyph glyph-name="Ntilde" unicode="&#xd1;" horiz-adv-x="719" 
d="M101 85v509h-97v85h232l294 -528h2v443h-95v85h279v-85h-100v-601h-107l-322 580h-2v-488h98v-85h-279v85h97zM467 886h54c0 -82 -31 -135 -89 -135c-60 0 -114 61 -150 61c-23 0 -28 -20 -28 -54h-56c0 94 42 131 89 131c53 0 113 -60 145 -60c23 0 34 18 35 57z" />
    <glyph glyph-name="Oacute" unicode="&#xd3;" horiz-adv-x="802" 
d="M50 339c0 205 147 351 351 351s351 -147 351 -351s-147 -350 -351 -350c-205 0 -351 145 -351 350zM162 339c0 -146 104 -260 239 -260s239 114 239 260c0 147 -104 261 -239 261s-239 -114 -239 -261zM311 742l69 155h135l-141 -155h-63z" />
    <glyph glyph-name="Ocircumflex" unicode="&#xd4;" horiz-adv-x="802" 
d="M50 339c0 205 147 351 351 351s351 -147 351 -351s-147 -350 -351 -350c-205 0 -351 145 -351 350zM162 339c0 -146 104 -260 239 -260s239 114 239 260c0 147 -104 261 -239 261s-239 -114 -239 -261zM400 829l-81 -86h-66l82 153h130l85 -153h-69z" />
    <glyph glyph-name="Odieresis" unicode="&#xd6;" horiz-adv-x="802" 
d="M50 339c0 205 147 351 351 351s351 -147 351 -351s-147 -350 -351 -350c-205 0 -351 145 -351 350zM162 339c0 -146 104 -260 239 -260s239 114 239 260c0 147 -104 261 -239 261s-239 -114 -239 -261zM490 876c31 0 56 -25 56 -56s-25 -56 -56 -56s-56 25 -56 56
s25 56 56 56zM313 876c31 0 56 -25 56 -56s-25 -56 -56 -56s-56 25 -56 56s25 56 56 56z" />
    <glyph glyph-name="Ograve" unicode="&#xd2;" horiz-adv-x="802" 
d="M50 339c0 205 147 351 351 351s351 -147 351 -351s-147 -350 -351 -350c-205 0 -351 145 -351 350zM162 339c0 -146 104 -260 239 -260s239 114 239 260c0 147 -104 261 -239 261s-239 -114 -239 -261zM493 742h-63l-141 155h135z" />
    <glyph glyph-name="Otilde" unicode="&#xd5;" horiz-adv-x="802" 
d="M50 339c0 205 147 351 351 351s351 -147 351 -351s-147 -350 -351 -350c-205 0 -351 145 -351 350zM162 339c0 -146 104 -260 239 -260s239 114 239 260c0 147 -104 261 -239 261s-239 -114 -239 -261zM509 886h54c0 -82 -31 -135 -89 -135c-60 0 -114 61 -150 61
c-23 0 -28 -20 -28 -54h-56c0 94 42 131 89 131c53 0 113 -60 145 -60c23 0 34 18 35 57z" />
    <glyph glyph-name="Scaron" unicode="&#x160;" horiz-adv-x="531" 
d="M34 0v246h84v-60c43 -73 93 -112 158 -112c69 0 120 49 120 114c0 133 -213 87 -319 193c-26 26 -45 66 -45 123c0 126 96 186 198 186c54 0 106 -18 152 -53v45h84v-205h-84v47c-37 54 -82 79 -144 79c-69 0 -114 -35 -114 -87c0 -23 9 -44 23 -58
c53 -53 216 -44 295 -123c36 -36 58 -91 58 -146c0 -115 -92 -200 -215 -200c-62 0 -118 22 -167 67v-56h-84zM268 810l80 86h66l-82 -153h-130l-85 153h69z" />
    <glyph glyph-name="Uacute" unicode="&#xda;" horiz-adv-x="677" 
d="M477 594h-79v85h266v-85h-85v-391c0 -175 -127 -214 -235 -214c-196 0 -246 99 -246 215v390h-85v85h266v-85h-79v-393c0 -97 59 -130 136 -130c101 0 141 43 141 138v385zM248 742l69 155h135l-141 -155h-63z" />
    <glyph glyph-name="Ucircumflex" unicode="&#xdb;" horiz-adv-x="677" 
d="M477 594h-79v85h266v-85h-85v-391c0 -175 -127 -214 -235 -214c-196 0 -246 99 -246 215v390h-85v85h266v-85h-79v-393c0 -97 59 -130 136 -130c101 0 141 43 141 138v385zM337 829l-81 -86h-66l82 153h130l85 -153h-69z" />
    <glyph glyph-name="Udieresis" unicode="&#xdc;" horiz-adv-x="677" 
d="M477 594h-79v85h266v-85h-85v-391c0 -175 -127 -214 -235 -214c-196 0 -246 99 -246 215v390h-85v85h266v-85h-79v-393c0 -97 59 -130 136 -130c101 0 141 43 141 138v385zM427 876c31 0 56 -25 56 -56s-25 -56 -56 -56s-56 25 -56 56s25 56 56 56zM250 876
c31 0 56 -25 56 -56s-25 -56 -56 -56s-56 25 -56 56s25 56 56 56z" />
    <glyph glyph-name="Ugrave" unicode="&#xd9;" horiz-adv-x="677" 
d="M477 594h-79v85h266v-85h-85v-391c0 -175 -127 -214 -235 -214c-196 0 -246 99 -246 215v390h-85v85h266v-85h-79v-393c0 -97 59 -130 136 -130c101 0 141 43 141 138v385zM430 742h-63l-141 155h135z" />
    <glyph glyph-name="Yacute" unicode="&#xdd;" horiz-adv-x="646" 
d="M275 85v224l-202 285h-83v85h279v-85h-85l149 -209l137 209h-85v85h271v-85h-90l-189 -285v-224h93v-85h-286v85h91zM233 742l69 155h135l-141 -155h-63z" />
    <glyph glyph-name="Ydieresis" unicode="&#x178;" horiz-adv-x="646" 
d="M275 85v224l-202 285h-83v85h279v-85h-85l149 -209l137 209h-85v85h271v-85h-90l-189 -285v-224h93v-85h-286v85h91zM412 876c31 0 56 -25 56 -56s-25 -56 -56 -56s-56 25 -56 56s25 56 56 56zM235 876c31 0 56 -25 56 -56s-25 -56 -56 -56s-56 25 -56 56s25 56 56 56z
" />
    <glyph glyph-name="Zcaron" unicode="&#x17d;" horiz-adv-x="563" 
d="M25 0v85l364 509h-264v-119h-84v204h478v-75l-371 -519h298v131h84v-216h-505zM284 810l80 86h66l-82 -153h-130l-85 153h69z" />
    <glyph glyph-name="aacute" unicode="&#xe1;" horiz-adv-x="531" 
d="M520 82v-82h-164v58c-59 -48 -100 -66 -152 -66c-90 0 -160 66 -160 150c0 86 75 153 172 153c42 0 91 -15 129 -40v62c0 67 -49 91 -105 91c-45 0 -80 -19 -101 -56l-89 24c40 73 108 110 204 110c138 0 185 -69 185 -145v-259h81zM345 120v56c-40 31 -82 47 -122 47
c-52 0 -90 -34 -90 -81c0 -46 35 -78 85 -78c42 0 89 21 127 56zM175 535l69 155h135l-141 -155h-63z" />
    <glyph glyph-name="acircumflex" unicode="&#xe2;" horiz-adv-x="531" 
d="M520 82v-82h-164v58c-59 -48 -100 -66 -152 -66c-90 0 -160 66 -160 150c0 86 75 153 172 153c42 0 91 -15 129 -40v62c0 67 -49 91 -105 91c-45 0 -80 -19 -101 -56l-89 24c40 73 108 110 204 110c138 0 185 -69 185 -145v-259h81zM345 120v56c-40 31 -82 47 -122 47
c-52 0 -90 -34 -90 -81c0 -46 35 -78 85 -78c42 0 89 21 127 56zM264 622l-81 -86h-66l82 153h130l85 -153h-69z" />
    <glyph glyph-name="adieresis" unicode="&#xe4;" horiz-adv-x="531" 
d="M520 82v-82h-164v58c-59 -48 -100 -66 -152 -66c-90 0 -160 66 -160 150c0 86 75 153 172 153c42 0 91 -15 129 -40v62c0 67 -49 91 -105 91c-45 0 -80 -19 -101 -56l-89 24c40 73 108 110 204 110c138 0 185 -69 185 -145v-259h81zM345 120v56c-40 31 -82 47 -122 47
c-52 0 -90 -34 -90 -81c0 -46 35 -78 85 -78c42 0 89 21 127 56zM354 669c31 0 56 -25 56 -56s-25 -56 -56 -56s-56 25 -56 56s25 56 56 56zM177 669c31 0 56 -25 56 -56s-25 -56 -56 -56s-56 25 -56 56s25 56 56 56z" />
    <glyph glyph-name="agrave" unicode="&#xe0;" horiz-adv-x="531" 
d="M520 82v-82h-164v58c-59 -48 -100 -66 -152 -66c-90 0 -160 66 -160 150c0 86 75 153 172 153c42 0 91 -15 129 -40v62c0 67 -49 91 -105 91c-45 0 -80 -19 -101 -56l-89 24c40 73 108 110 204 110c138 0 185 -69 185 -145v-259h81zM345 120v56c-40 31 -82 47 -122 47
c-52 0 -90 -34 -90 -81c0 -46 35 -78 85 -78c42 0 89 21 127 56zM357 535h-63l-141 155h135z" />
    <glyph glyph-name="aring" unicode="&#xe5;" horiz-adv-x="531" 
d="M520 82v-82h-164v58c-59 -48 -100 -66 -152 -66c-90 0 -160 66 -160 150c0 86 75 153 172 153c42 0 91 -15 129 -40v62c0 67 -49 91 -105 91c-45 0 -80 -19 -101 -56l-89 24c40 73 108 110 204 110c138 0 185 -69 185 -145v-259h81zM345 120v56c-40 31 -82 47 -122 47
c-52 0 -90 -34 -90 -81c0 -46 35 -78 85 -78c42 0 89 21 127 56zM363 613c0 -54 -44 -98 -98 -98s-97 44 -97 98s43 97 97 97s98 -43 98 -97zM324 613c0 33 -26 59 -59 59s-59 -26 -59 -59s26 -59 59 -59s59 26 59 59z" />
    <glyph glyph-name="atilde" unicode="&#xe3;" horiz-adv-x="531" 
d="M520 82v-82h-164v58c-59 -48 -100 -66 -152 -66c-90 0 -160 66 -160 150c0 86 75 153 172 153c42 0 91 -15 129 -40v62c0 67 -49 91 -105 91c-45 0 -80 -19 -101 -56l-89 24c40 73 108 110 204 110c138 0 185 -69 185 -145v-259h81zM345 120v56c-40 31 -82 47 -122 47
c-52 0 -90 -34 -90 -81c0 -46 35 -78 85 -78c42 0 89 21 127 56zM373 679h54c0 -82 -31 -135 -89 -135c-60 0 -114 61 -150 61c-23 0 -28 -20 -28 -54h-56c0 94 42 131 89 131c53 0 113 -60 145 -60c23 0 34 18 35 57z" />
    <glyph glyph-name="ccedilla" unicode="&#xe7;" horiz-adv-x="521" 
d="M220 -91l13 81c-135 21 -198 141 -198 250c0 136 103 246 232 246c51 0 98 -16 133 -46v32h84v-178h-84c-5 33 -19 60 -41 79c-21 18 -50 28 -84 28c-84 0 -140 -65 -140 -160c0 -101 59 -170 144 -170c63 0 114 33 142 93l77 -36c-41 -92 -118 -141 -219 -142l-3 -23
c36 -9 57 -37 57 -77c0 -48 -32 -88 -110 -88h-35v50c47 -1 71 6 71 33c0 18 -12 27 -39 28z" />
    <glyph glyph-name="eacute" unicode="&#xe9;" 
d="M536 213h-397c14 -92 74 -145 162 -145c61 0 118 27 153 77l82 -36c-51 -79 -136 -123 -237 -123c-153 0 -263 104 -263 250c0 153 125 250 248 250c131 0 252 -100 252 -273zM142 281h299c-15 75 -81 130 -155 130s-130 -51 -144 -130zM196 535l69 155h135l-141 -155
h-63z" />
    <glyph glyph-name="ecircumflex" unicode="&#xea;" 
d="M536 213h-397c14 -92 74 -145 162 -145c61 0 118 27 153 77l82 -36c-51 -79 -136 -123 -237 -123c-153 0 -263 104 -263 250c0 153 125 250 248 250c131 0 252 -100 252 -273zM142 281h299c-15 75 -81 130 -155 130s-130 -51 -144 -130zM285 622l-81 -86h-66l82 153h130
l85 -153h-69z" />
    <glyph glyph-name="edieresis" unicode="&#xeb;" 
d="M536 213h-397c14 -92 74 -145 162 -145c61 0 118 27 153 77l82 -36c-51 -79 -136 -123 -237 -123c-153 0 -263 104 -263 250c0 153 125 250 248 250c131 0 252 -100 252 -273zM142 281h299c-15 75 -81 130 -155 130s-130 -51 -144 -130zM375 669c31 0 56 -25 56 -56
s-25 -56 -56 -56s-56 25 -56 56s25 56 56 56zM198 669c31 0 56 -25 56 -56s-25 -56 -56 -56s-56 25 -56 56s25 56 56 56z" />
    <glyph glyph-name="egrave" unicode="&#xe8;" 
d="M536 213h-397c14 -92 74 -145 162 -145c61 0 118 27 153 77l82 -36c-51 -79 -136 -123 -237 -123c-153 0 -263 104 -263 250c0 153 125 250 248 250c131 0 252 -100 252 -273zM142 281h299c-15 75 -81 130 -155 130s-130 -51 -144 -130zM378 535h-63l-141 155h135z" />
    <glyph glyph-name="iacute" unicode="&#xed;" horiz-adv-x="292" 
d="M99 82v308h-75v82h169v-390h75v-82h-244v82h75zM56 535l69 155h135l-141 -155h-63z" />
    <glyph glyph-name="icircumflex" unicode="&#xee;" horiz-adv-x="292" 
d="M99 82v308h-75v82h169v-390h75v-82h-244v82h75zM145 622l-81 -86h-66l82 153h130l85 -153h-69z" />
    <glyph glyph-name="idieresis" unicode="&#xef;" horiz-adv-x="292" 
d="M99 82v308h-75v82h169v-390h75v-82h-244v82h75zM235 669c31 0 56 -25 56 -56s-25 -56 -56 -56s-56 25 -56 56s25 56 56 56zM58 669c31 0 56 -25 56 -56s-25 -56 -56 -56s-56 25 -56 56s25 56 56 56z" />
    <glyph glyph-name="igrave" unicode="&#xec;" horiz-adv-x="292" 
d="M99 82v308h-75v82h169v-390h75v-82h-244v82h75zM197 535h-63l-141 155h135z" />
    <glyph glyph-name="ntilde" unicode="&#xf1;" 
d="M204 472v-57c63 46 111 65 161 65c67 0 124 -41 124 -134v-264h81v-82h-175v309c0 60 -17 86 -55 86s-88 -22 -136 -60v-253h81v-82h-256v82h81v308h-83v82h177zM394 679h54c0 -82 -31 -135 -89 -135c-60 0 -114 61 -150 61c-23 0 -28 -20 -28 -54h-56
c0 94 42 131 89 131c53 0 113 -60 145 -60c23 0 34 18 35 57z" />
    <glyph glyph-name="oacute" unicode="&#xf3;" 
d="M38 236c0 143 106 250 249 250c142 0 248 -107 248 -250s-107 -250 -249 -250s-248 107 -248 250zM138 236c0 -92 64 -160 148 -160c85 0 149 68 149 160c0 91 -64 160 -149 160c-84 0 -148 -69 -148 -160zM196 535l69 155h135l-141 -155h-63z" />
    <glyph glyph-name="ocircumflex" unicode="&#xf4;" 
d="M38 236c0 143 106 250 249 250c142 0 248 -107 248 -250s-107 -250 -249 -250s-248 107 -248 250zM138 236c0 -92 64 -160 148 -160c85 0 149 68 149 160c0 91 -64 160 -149 160c-84 0 -148 -69 -148 -160zM285 622l-81 -86h-66l82 153h130l85 -153h-69z" />
    <glyph glyph-name="odieresis" unicode="&#xf6;" 
d="M38 236c0 143 106 250 249 250c142 0 248 -107 248 -250s-107 -250 -249 -250s-248 107 -248 250zM138 236c0 -92 64 -160 148 -160c85 0 149 68 149 160c0 91 -64 160 -149 160c-84 0 -148 -69 -148 -160zM375 669c31 0 56 -25 56 -56s-25 -56 -56 -56s-56 25 -56 56
s25 56 56 56zM198 669c31 0 56 -25 56 -56s-25 -56 -56 -56s-56 25 -56 56s25 56 56 56z" />
    <glyph glyph-name="ograve" unicode="&#xf2;" 
d="M38 236c0 143 106 250 249 250c142 0 248 -107 248 -250s-107 -250 -249 -250s-248 107 -248 250zM138 236c0 -92 64 -160 148 -160c85 0 149 68 149 160c0 91 -64 160 -149 160c-84 0 -148 -69 -148 -160zM378 535h-63l-141 155h135z" />
    <glyph glyph-name="otilde" unicode="&#xf5;" 
d="M38 236c0 143 106 250 249 250c142 0 248 -107 248 -250s-107 -250 -249 -250s-248 107 -248 250zM138 236c0 -92 64 -160 148 -160c85 0 149 68 149 160c0 91 -64 160 -149 160c-84 0 -148 -69 -148 -160zM394 679h54c0 -82 -31 -135 -89 -135c-60 0 -114 61 -150 61
c-23 0 -28 -20 -28 -54h-56c0 94 42 131 89 131c53 0 113 -60 145 -60c23 0 34 18 35 57z" />
    <glyph glyph-name="scaron" unicode="&#x161;" horiz-adv-x="458" 
d="M41 0v162h83v-16c8 -47 51 -76 113 -76c59 0 97 23 97 59c0 88 -166 32 -256 122c-22 22 -37 55 -37 90c0 81 70 139 166 139c43 0 84 -10 115 -27v19h82v-156h-82v29c-27 40 -62 58 -110 58c-50 0 -83 -23 -83 -58c0 -79 182 -33 260 -111c28 -28 40 -65 40 -98
c0 -86 -73 -144 -181 -144c-51 0 -90 11 -124 34v-26h-83zM232 603l80 86h66l-82 -153h-130l-85 153h69z" />
    <glyph glyph-name="uacute" unicode="&#xfa;" horiz-adv-x="563" 
d="M553 82v-82h-175v54c-53 -41 -105 -62 -154 -62c-86 0 -131 47 -131 146v252h-67v82h161v-329c0 -48 20 -69 56 -69c39 0 93 23 135 60v256h-81v82h175v-390h81zM191 535l69 155h135l-141 -155h-63z" />
    <glyph glyph-name="ucircumflex" unicode="&#xfb;" horiz-adv-x="563" 
d="M553 82v-82h-175v54c-53 -41 -105 -62 -154 -62c-86 0 -131 47 -131 146v252h-67v82h161v-329c0 -48 20 -69 56 -69c39 0 93 23 135 60v256h-81v82h175v-390h81zM280 622l-81 -86h-66l82 153h130l85 -153h-69z" />
    <glyph glyph-name="udieresis" unicode="&#xfc;" horiz-adv-x="563" 
d="M553 82v-82h-175v54c-53 -41 -105 -62 -154 -62c-86 0 -131 47 -131 146v252h-67v82h161v-329c0 -48 20 -69 56 -69c39 0 93 23 135 60v256h-81v82h175v-390h81zM370 669c31 0 56 -25 56 -56s-25 -56 -56 -56s-56 25 -56 56s25 56 56 56zM193 669c31 0 56 -25 56 -56
s-25 -56 -56 -56s-56 25 -56 56s25 56 56 56z" />
    <glyph glyph-name="ugrave" unicode="&#xf9;" horiz-adv-x="563" 
d="M553 82v-82h-175v54c-53 -41 -105 -62 -154 -62c-86 0 -131 47 -131 146v252h-67v82h161v-329c0 -48 20 -69 56 -69c39 0 93 23 135 60v256h-81v82h175v-390h81zM343 535h-63l-141 155h135z" />
    <glyph glyph-name="yacute" unicode="&#xfd;" horiz-adv-x="563" 
d="M242 9l-155 381h-79v82h234v-82h-56l102 -261l100 261h-63v82h229v-82h-70l-234 -602h-158v82h93zM191 535l69 155h135l-141 -155h-63z" />
    <glyph glyph-name="ydieresis" unicode="&#xff;" horiz-adv-x="563" 
d="M242 9l-155 381h-79v82h234v-82h-56l102 -261l100 261h-63v82h229v-82h-70l-234 -602h-158v82h93zM370 669c31 0 56 -25 56 -56s-25 -56 -56 -56s-56 25 -56 56s25 56 56 56zM193 669c31 0 56 -25 56 -56s-25 -56 -56 -56s-56 25 -56 56s25 56 56 56z" />
    <glyph glyph-name="zcaron" unicode="&#x17e;" horiz-adv-x="448" 
d="M16 0v77l294 319h-192v-91h-79v167h384v-82l-298 -313h215v97h83v-174h-407zM227 603l80 86h66l-82 -153h-130l-85 153h69z" />
    <glyph glyph-name="one.superior" horiz-adv-x="333" 
d="M131 380v256h-56v48h122v-304h53v-48h-174v48h55z" />
    <glyph glyph-name="two.superior" horiz-adv-x="333" 
d="M296 462l-4 -130h-268c0 167 199 184 199 257c0 34 -22 54 -61 54c-45 0 -70 -24 -62 -94h-66c-9 85 37 141 130 141c76 0 128 -39 128 -97c0 -104 -171 -116 -197 -210h139v79h62z" />
    <glyph glyph-name="three.superior" horiz-adv-x="333" 
d="M146 491h-25v49h27c57 0 75 20 75 50c0 32 -22 53 -57 53c-41 0 -59 -20 -60 -70h-68c0 77 43 117 126 117c76 0 125 -38 125 -96c0 -33 -13 -55 -47 -77c47 -20 65 -42 65 -84c0 -64 -59 -107 -145 -107c-92 0 -142 46 -142 129h65c1 -54 30 -82 82 -82
c44 0 72 23 72 58c0 37 -31 60 -93 60z" />
    <glyph glyph-name="a.superior" horiz-adv-x="344" 
d="M330 448v-50h-105v35c-27 -25 -63 -40 -98 -40c-58 0 -104 39 -104 90c0 52 49 92 113 92c27 0 57 -9 83 -24v39c0 32 -23 53 -68 53c-30 0 -52 -12 -66 -34l-57 15c25 44 69 66 132 66c58 0 118 -17 118 -91v-151h52zM219 471v33c-24 18 -53 28 -78 28
c-35 0 -60 -20 -60 -48s23 -47 56 -47c27 0 58 13 82 34z" />
    <glyph glyph-name="Omega" unicode="&#x2126;" horiz-adv-x="698" 
d="M187 70v3c-67 59 -129 160 -129 293c0 185 125 320 294 320c178 0 286 -154 286 -316c0 -137 -65 -242 -130 -297v-3h144v-70h-240v51c71 47 140 148 140 303c0 125 -69 261 -201 261c-126 0 -206 -116 -206 -264c0 -144 69 -255 140 -300v-51h-240v70h142z" />
    <glyph glyph-name="uni03BC" unicode="&#x3bc;" horiz-adv-x="552" 
d="M485 472v-472h-78v61h-2c-35 -53 -70 -72 -128 -72c-55 0 -86 16 -122 63h-2v-264h-87v684h87v-236c0 -109 41 -169 119 -169c65 0 126 47 126 152v253h87z" />
    <glyph glyph-name="pi" unicode="&#x3c0;" horiz-adv-x="562" 
d="M537 431h-76v-288c0 -78 7 -116 14 -143h-83c-10 17 -16 60 -16 137v294h-166c-6 -120 -34 -337 -69 -431h-84c36 106 64 307 68 431c-57 0 -85 -4 -105 -12l-12 57c24 16 67 28 144 28h393z" />
    <glyph glyph-name="Euro" unicode="&#x20ac;" horiz-adv-x="542" 
d="M193 373l-1 -31l1 -32h180v-74h-173c16 -110 65 -165 148 -165c27 0 51 12 71 36c21 24 35 55 44 93l89 -39c-11 -52 -34 -94 -71 -125c-36 -32 -83 -47 -140 -47c-142 0 -223 82 -244 247h-64v74h58v29c0 16 0 27 1 34h-59v74h64c19 162 100 243 242 243
c48 0 83 -16 106 -47v42h88v-202h-88c-5 40 -17 71 -36 93c-19 23 -43 34 -71 34c-41 0 -73 -13 -96 -39c-22 -27 -37 -68 -44 -124h175v-74h-180z" />
    <glyph glyph-name="afii61289" unicode="&#x2113;" horiz-adv-x="479" 
d="M419 154l38 -36c-45 -86 -111 -125 -187 -125c-112 0 -158 81 -164 174v12c-17 -13 -36 -30 -55 -44l-24 48c28 24 54 44 78 67v259c0 175 77 236 155 236c86 0 125 -72 125 -161c0 -120 -79 -234 -199 -350l1 -34c1 -98 48 -139 101 -139c59 0 106 49 131 93zM186 514
v-198c80 88 142 180 142 268c0 59 -18 98 -66 98c-34 0 -76 -40 -76 -168z" />
    <glyph glyph-name="estimated" unicode="&#x212e;" horiz-adv-x="845" 
d="M811 330h-630c-3 0 -5 -1 -5 -4v-191c0 -9 3 -16 8 -22c61 -63 145 -104 239 -104c100 0 189 46 251 116h56c-70 -82 -183 -135 -308 -135c-215 0 -389 156 -389 349c0 194 174 351 389 351s389 -157 389 -351v-9zM668 355v191c0 9 -3 17 -9 23c-61 60 -144 100 -236 100
c-93 0 -177 -41 -238 -103c-6 -6 -9 -14 -9 -24v-187c0 -3 2 -7 5 -7h483c3 0 4 4 4 7z" />
    <glyph glyph-name="partialdiff" unicode="&#x2202;" horiz-adv-x="538" 
d="M99 643l-27 62c31 25 84 55 166 55c130 0 251 -120 251 -367c0 -229 -90 -400 -258 -400c-130 0 -191 117 -191 225c0 152 97 248 207 248c88 0 142 -61 157 -89h1c1 10 1 29 1 40c0 159 -78 272 -178 272c-60 0 -102 -25 -129 -46zM238 64h1c88 0 144 115 157 233
c-13 40 -62 101 -134 101c-76 0 -138 -83 -138 -181c0 -87 45 -153 114 -153z" />
    <glyph glyph-name="product" unicode="&#x220f;" horiz-adv-x="685" 
d="M660 598h-105v-691h-84v691h-258v-691h-84v691h-104v77h635v-77z" />
    <glyph glyph-name="summation" unicode="&#x2211;" horiz-adv-x="539" 
d="M518 -93h-496v56l255 327l-244 326v59h470v-73h-353v-3l224 -296l-244 -313v-3h388v-80z" />
    <glyph glyph-name="uni2219" unicode="&#x2219;" horiz-adv-x="292" 
d="M86 268v120h120v-120h-120z" />
    <glyph glyph-name="radical" unicode="&#x221a;" horiz-adv-x="561" 
d="M563 804l-217 -946h-72l-153 442l-72 -28l-17 51l141 55l119 -348c6 -26 13 -53 17 -73h1c3 19 9 47 14 74l177 773h62z" />
    <glyph glyph-name="infinity" unicode="&#x221e;" horiz-adv-x="754" 
d="M705 281v-2c0 -97 -72 -157 -150 -157c-60 0 -110 35 -177 114c-51 -59 -103 -114 -183 -114c-78 0 -147 65 -147 154c0 91 66 156 155 156c73 0 127 -52 179 -113c47 53 97 114 180 113c84 0 143 -61 143 -151zM202 173h2c60 0 106 58 146 101c-43 53 -85 109 -153 109
c-60 0 -95 -50 -95 -108c0 -56 41 -102 100 -102zM556 383h-1c-64 0 -114 -69 -147 -104c63 -72 99 -106 150 -106c60 0 94 54 94 103c0 66 -40 107 -96 107z" />
    <glyph glyph-name="integral" unicode="&#x222b;" horiz-adv-x="356" 
d="M339 815l-13 -59c-8 5 -22 10 -35 10c-17 0 -36 -7 -49 -24c-24 -28 -32 -81 -32 -170c0 -153 14 -319 14 -481c0 -101 -18 -160 -40 -195c-23 -38 -63 -54 -103 -54c-27 0 -55 8 -67 16l14 61c8 -4 24 -12 43 -12c16 0 34 7 45 22c18 24 32 67 32 162
c0 164 -14 333 -14 489c0 108 14 168 53 208c26 27 62 40 97 40c21 0 44 -7 55 -13z" />
    <glyph glyph-name="approxequal" unicode="&#x2248;" horiz-adv-x="544" 
d="M467 422l33 -30c-27 -53 -68 -94 -126 -94c-40 0 -67 15 -113 41c-30 17 -57 33 -89 33c-45 0 -71 -35 -96 -72l-34 29c30 57 79 94 136 94c47 0 81 -24 107 -39c35 -19 57 -34 91 -34c39 0 64 26 91 72zM467 253l33 -30c-27 -52 -67 -94 -126 -94c-40 0 -67 15 -113 41
c-30 17 -57 33 -89 33c-46 0 -71 -35 -96 -72l-34 29c30 57 79 94 136 94c48 0 81 -24 107 -38c32 -18 56 -35 91 -35c39 0 64 26 91 72z" />
    <glyph glyph-name="notequal" unicode="&#x2260;" horiz-adv-x="544" 
d="M390 490l-43 -93h148v-53h-169l-63 -139h232v-53h-253l-52 -114l-42 19l43 95h-142v53h164l63 139h-227v53h248l51 112z" />
    <glyph glyph-name="lessequal" unicode="&#x2264;" horiz-adv-x="544" 
d="M493 93l-439 218v57l438 218v-63l-382 -182v-2l383 -183v-63zM495 0h-446v55h446v-55z" />
    <glyph glyph-name="greaterequal" unicode="&#x2265;" horiz-adv-x="544" 
d="M55 586l438 -219v-56l-438 -218v63l382 182v3l-382 182v63zM494 0h-444v55h444v-55z" />
    <glyph glyph-name="lozenge" unicode="&#x25ca;" horiz-adv-x="561" 
d="M509 337l-196 -382h-69l-192 382l195 383h69zM432 335l-132 262c-7 16 -15 38 -19 52h-2c-5 -15 -11 -34 -19 -52l-132 -258l133 -264c8 -19 15 -39 17 -51h4c3 13 11 38 17 50z" />
    <glyph glyph-name="uni00A0" unicode="&#xa0;" horiz-adv-x="250" 
 />
    <glyph glyph-name="uni00AD" unicode="&#xad;" horiz-adv-x="354" 
d="M31 275h293v-82h-293v82z" />
    <glyph glyph-name="uni02C9" unicode="&#x2c9;" horiz-adv-x="333" 
d="M24 582v53h285v-53h-285z" />
    <glyph glyph-name="uni2215" unicode="&#x2215;" horiz-adv-x="302" 
d="M-148 0l539 679h59l-538 -679h-60z" />
    <glyph glyph-name="uni03A9" unicode="&#x3a9;" horiz-adv-x="698" 
d="M187 70v3c-67 59 -129 160 -129 293c0 185 125 320 294 320c178 0 286 -154 286 -316c0 -137 -65 -242 -130 -297v-3h144v-70h-240v51c71 47 140 148 140 303c0 125 -69 261 -201 261c-126 0 -206 -116 -206 -264c0 -144 69 -255 140 -300v-51h-240v70h142z" />
    <glyph glyph-name="o.superior" horiz-adv-x="375" 
d="M26 540c0 86 69 150 162 150c92 0 161 -64 161 -150s-69 -150 -161 -150c-93 0 -162 64 -162 150zM90 540c0 -55 42 -96 98 -96c55 0 97 41 97 96c0 54 -42 95 -97 95c-56 0 -98 -41 -98 -95z" />
    <glyph glyph-name="uni2206" unicode="&#x2206;" horiz-adv-x="633" 
d="M29 0v55l239 638h100l235 -637v-56h-574zM116 69h395l-133 349c-16 52 -50 135 -62 179h-3c-9 -36 -40 -111 -57 -163z" />
    <glyph glyph-name="fi" unicode="&#xfb01;" 
d="M390 390h-191v-308h75v-82h-244v82h75v308h-75v82h75v85c0 94 59 136 126 136s111 -39 122 -109l-82 -13c-3 31 -15 46 -36 46c-23 0 -36 -19 -36 -51v-94h285v-390h75v-82h-244v82h75v308zM438 689c31 0 56 -25 56 -56s-25 -56 -56 -56s-56 25 -56 56s25 56 56 56z" />
    <glyph glyph-name="fl" unicode="&#xfb02;" 
d="M199 472h80v-82h-80v-308h75v-82h-244v82h75v308h-75v82h75v85c0 94 60 136 126 136c26 0 49 -7 59 -14h194v-597h75v-82h-244v82h75v515l-118 -11c-6 21 -16 31 -37 31c-23 0 -36 -19 -36 -51v-94z" />
    <glyph glyph-name="onesuperior" unicode="&#xb9;" horiz-adv-x="333" 
d="M131 380v256h-56v48h122v-304h53v-48h-174v48h55z" />
    <glyph glyph-name="threesuperior" unicode="&#xb3;" horiz-adv-x="333" 
d="M146 491h-25v49h27c57 0 75 20 75 50c0 32 -22 53 -57 53c-41 0 -59 -20 -60 -70h-68c0 77 43 117 126 117c76 0 125 -38 125 -96c0 -33 -13 -55 -47 -77c47 -20 65 -42 65 -84c0 -64 -59 -107 -145 -107c-92 0 -142 46 -142 129h65c1 -54 30 -82 82 -82
c44 0 72 23 72 58c0 37 -31 60 -93 60z" />
    <glyph glyph-name="twosuperior" unicode="&#xb2;" horiz-adv-x="333" 
d="M296 462l-4 -130h-268c0 167 199 184 199 257c0 34 -22 54 -61 54c-45 0 -70 -24 -62 -94h-66c-9 85 37 141 130 141c76 0 128 -39 128 -97c0 -104 -171 -116 -197 -210h139v79h62z" />
    <glyph glyph-name="uni2010" unicode="&#x2010;" horiz-adv-x="354" 
d="M31 275h293v-82h-293v82z" />
    </font>
</defs>
</svg>
